<svg xmlns="http://www.w3.org/2000/svg" xmlns:xlink="http://www.w3.org/1999/xlink" width="63" height="63" viewBox="0 0 63 63">
  <defs>
    <filter id="Ellipse_599" x="0" y="0" width="63" height="63" filterUnits="userSpaceOnUse">
      <feOffset dy="3" input="SourceAlpha"/>
      <feGaussianBlur stdDeviation="3" result="blur"/>
      <feFlood flood-opacity="0.161"/>
      <feComposite operator="in" in2="blur"/>
      <feComposite in="SourceGraphic"/>
    </filter>
    <clipPath id="clip-path">
      <path id="Path_16968" data-name="Path 16968" d="M0,7.739H14.729V-9.537H0Z" transform="translate(0 9.537)" fill="none"/>
    </clipPath>
  </defs>
  <g id="Boulangerie" transform="translate(-577 -582)">
    <g transform="matrix(1, 0, 0, 1, 577, 582)" filter="url(#Ellipse_599)">
      <g id="Ellipse_599-2" data-name="Ellipse 599" transform="translate(9 6)" fill="#eb3b5a" stroke="#fff" stroke-width="2">
        <circle cx="22.5" cy="22.5" r="22.5" stroke="none"/>
        <circle cx="22.5" cy="22.5" r="21.5" fill="none"/>
      </g>
    </g>
    <g id="Group_16815" data-name="Group 16815" transform="translate(601 611.537)">
      <g id="Group_16809" data-name="Group 16809" transform="translate(0 -9.537)" clip-path="url(#clip-path)">
        <g id="Group_16808" data-name="Group 16808" transform="translate(1.818 10.607)">
          <path id="Path_16967" data-name="Path 16967" d="M0,0,1.777,6.542a.171.171,0,0,0,.163.125h.935L2,0Z" transform="translate(0 0.001)" fill="#fff"/>
        </g>
      </g>
      <g id="Group_16810" data-name="Group 16810" transform="translate(4.837 1.072)">
        <path id="Path_16969" data-name="Path 16969" d="M0,0,.879,6.666H2.02V0Z" fill="#fff"/>
      </g>
      <g id="Group_16811" data-name="Group 16811" transform="translate(7.871 1.072)">
        <path id="Path_16970" data-name="Path 16970" d="M0,0V6.666H1.143L2.02,0Z" fill="#fff"/>
      </g>
      <g id="Group_16814" data-name="Group 16814" transform="translate(0 -9.537)" clip-path="url(#clip-path)">
        <g id="Group_16812" data-name="Group 16812" transform="translate(10.036 10.608)">
          <path id="Path_16971" data-name="Path 16971" d="M0,2.987H1.022a.169.169,0,0,0,.163-.127l1.7-6.541h-2Z" transform="translate(0 3.681)" fill="#fff"/>
        </g>
        <g id="Group_16813" data-name="Group 16813" transform="translate(0.001 0)">
          <path id="Path_16972" data-name="Path 16972" d="M5.881,2.867H3.456a1.6,1.6,0,0,0,0-3.2H.489a1.659,1.659,0,0,0,1.228-1.6,1.6,1.6,0,0,0-1.6-1.6,1.6,1.6,0,0,0-1.6,1.6A1.659,1.659,0,0,0-.256-.33H-3.223a1.6,1.6,0,0,0-1.6,1.6,1.6,1.6,0,0,0,1.6,1.6H-5.65a1.6,1.6,0,0,0-1.6,1.6,1.6,1.6,0,0,0,1.6,1.6H5.881a1.6,1.6,0,0,0,0-3.2Z" transform="translate(7.248 3.533)" fill="#fff"/>
        </g>
      </g>
    </g>
  </g>
</svg>
