<svg xmlns="http://www.w3.org/2000/svg" width="25.164" height="13.98" viewBox="0 0 25.164 13.98">
  <g id="Car" transform="translate(-803 -194.517)">
    <path id="Path_17022" data-name="Path 17022" d="M2.8,1.021H22.367a2.8,2.8,0,0,1,2.8,2.8V12.2a2.8,2.8,0,0,1-2.8,2.8H2.8A2.8,2.8,0,0,1,0,12.2V3.816a2.8,2.8,0,0,1,2.8-2.8" transform="translate(803 193.496)" fill="#4b7bec"/>
    <path id="Path_17023" data-name="Path 17023" d="M5.882,8.588A.816.816,0,1,1,6.7,7.772a.816.816,0,0,1-.816.816m0-2.176a1.36,1.36,0,1,0,1.36,1.36,1.36,1.36,0,0,0-1.36-1.36" transform="translate(805.198 196.117)" fill="#fff"/>
    <path id="Path_17024" data-name="Path 17024" d="M16.449,5.515h-.74a.136.136,0,0,1-.135-.135h0l.007-.737a.137.137,0,0,1,.22-.107,3.6,3.6,0,0,1,.756.761.136.136,0,0,1-.107.22ZM15.03,5.381a.135.135,0,0,1-.135.134H12.442a.136.136,0,0,1-.135-.135V3.893a.135.135,0,0,1,.135-.137,12.426,12.426,0,0,1,1.725.123,4.456,4.456,0,0,1,.785.208.135.135,0,0,1,.089.129Zm-3.268,0a.136.136,0,0,1-.135.137H8.079a.139.139,0,0,1-.14-.135.142.142,0,0,1,.046-.106A5.975,5.975,0,0,1,11.61,3.8a.138.138,0,0,1,.149.126V5.381Zm7.345,2.584V6.333a.274.274,0,0,0-.186-.259l-1.535-.511a4.175,4.175,0,0,0-3.128-2.219h-.01c-3.241-.447-5.676.281-7.239,2.174a6.306,6.306,0,0,0-3.05.707,1.331,1.331,0,0,0-.6,1.066l-.033.675a.272.272,0,0,0-.272.272V9.327a.272.272,0,0,0,.272.272H4.418a.272.272,0,0,0,.272-.275v0A1.9,1.9,0,0,1,8.5,9.327a.247.247,0,0,0,.22.272.153.153,0,0,0,.052,0h4.9a.274.274,0,0,0,.272-.275v0a1.9,1.9,0,0,1,3.808.007.247.247,0,0,0,.218.272.162.162,0,0,0,.054,0h1.088a.272.272,0,0,0,.272-.272V8.239a.272.272,0,0,0-.27-.273Z" transform="translate(804.486 194.564)" fill="#fff"/>
    <path id="Path_17025" data-name="Path 17025" d="M12.1,8.588a.816.816,0,1,1,.816-.816.816.816,0,0,1-.816.816m0-2.176a1.36,1.36,0,1,0,1.36,1.36,1.36,1.36,0,0,0-1.36-1.36" transform="translate(808.224 196.117)" fill="#fff"/>
  </g>
</svg>
