<svg xmlns="http://www.w3.org/2000/svg" xmlns:xlink="http://www.w3.org/1999/xlink" width="94" height="58.643" viewBox="0 0 94 58.643">
  <defs>
    <clipPath id="clip-path">
      <rect id="Rectangle_4052" data-name="Rectangle 4052" width="94" height="58.643" fill="none"/>
    </clipPath>
  </defs>
  <g id="Groupe_16850" data-name="Groupe 16850" transform="translate(0 -0.001)">
    <g id="Groupe_16849" data-name="Groupe 16849" transform="translate(0 0.001)" clip-path="url(#clip-path)">
      <path id="Tracé_17033" data-name="Tracé 17033" d="M25.04.267a12.712,12.712,0,0,1,9.7,2,16.348,16.348,0,0,1,4.23,4.141c.477.8,1.075,1.713.746,2.681-.873.127-1.73-.218-2.608-.145a4.8,4.8,0,0,0-4.028,2.643,12.2,12.2,0,0,0-1.021,5.819,7.849,7.849,0,0,0,1.73,4.941,8.45,8.45,0,0,0,5.693,2.718,10.7,10.7,0,0,0,8.1-2.5A10.238,10.238,0,0,0,50.405,15.2a25.352,25.352,0,0,0-1.751-8.971C48.126,4.661,46.978,3.4,46.3,1.908c.054-.127.183-.348.256-.474.294,0,.636-.092.838.183Q59.515,13.954,71.613,26.289c.876.946,1.878,2.058,1.77,3.446A8,8,0,0,1,70.975,33.2q-11.4,11.489-22.811,22.959c-.528.49-.986,1.185-1.751,1.28-.057-.132-.164-.366-.237-.5A13.143,13.143,0,0,1,47.361,53.9a26.385,26.385,0,0,0,1.35-3.23A22.185,22.185,0,0,0,49.8,45.657a34.637,34.637,0,0,0-.342-6,7.783,7.783,0,0,0-3.066-5.108,10.385,10.385,0,0,0-7.95-1.824,8.469,8.469,0,0,0-5.38,4.324,10.61,10.61,0,0,0,.674,10.9,3.7,3.7,0,0,0,4.068,1.3,2.46,2.46,0,0,1,1.387-.2c.781.711.329,1.88.016,2.718a11.793,11.793,0,0,1-4.593,5.07,13.379,13.379,0,0,1-8.608,1.657,12.232,12.232,0,0,1-8.115-4.922c-2.81-3.7-4.049-8.314-4.868-12.837a68.483,68.483,0,0,1-.73-14.952A54.97,54.97,0,0,1,15.029,11.72a23.706,23.706,0,0,1,4.157-7.7A10.984,10.984,0,0,1,25.04.267" transform="translate(20.611 -0.002)" fill="#0e4689"/>
      <path id="Tracé_17034" data-name="Tracé 17034" d="M25.61,1.861A9.125,9.125,0,0,1,27.087.546a4.8,4.8,0,0,1,.657.167c.092.746-.458,1.309-.819,1.913-.806,1.315-1.571,2.662-2.39,3.976a35.166,35.166,0,0,0-4.141,12.126,59.437,59.437,0,0,0-.746,7.223,47.881,47.881,0,0,0,1.113,13.877A40.944,40.944,0,0,0,25.19,51.152c.784,1.5,1.713,2.918,2.573,4.375a1.377,1.377,0,0,1,.145.967c-.73.183-1.223-.418-1.676-.876C18.08,47.6,9.874,39.643,1.741,31.622.9,30.728-.083,29.653.006,28.338.334,26.606,1.829,25.475,3,24.289Q14.3,13.047,25.61,1.861" transform="translate(0 0.923)" fill="#d9261c"/>
    </g>
  </g>
</svg>
