<?xml version="1.0" encoding="UTF-8"?><svg id="Calque_2" xmlns="http://www.w3.org/2000/svg" viewBox="0 0 45 45"><defs><style>.cls-1{fill:#fff;}.cls-2{fill:#864ba2;}</style></defs><g id="Calque_2-2"><g><g id="Calque_1-2"><path id="Path_17007" class="cls-2" d="M22.5,0c12.43,0,22.5,10.07,22.5,22.5s-10.07,22.5-22.5,22.5S0,34.93,0,22.5,10.07,0,22.5,0Z"/></g><path class="cls-1" d="M10.43,13.72c.16-.35,.43-.45,.81-.45,.88,.02,1.76,0,2.64,0,.42,0,.6,.14,.72,.55,.18,.61,.35,1.23,.53,1.85h.26c4.92,0,9.83,0,14.75,0,.1,0,.2,0,.3,.02,.37,.08,.54,.42,.41,.85-.41,1.45-.83,2.9-1.24,4.35-.36,1.27-.73,2.54-1.09,3.82-.12,.43-.3,.56-.75,.56-3.35,0-6.7,0-10.05,0-.21,0-.31,.07-.4,.25-.24,.52,.02,.95,.59,.95,3.29,0,6.58,0,9.87,0,.09,0,.17,0,.26,.02,.3,.07,.5,.34,.47,.63-.03,.31-.28,.55-.61,.55-.61,0-1.23,0-1.84,0-.07,0-.15,0-.22,0,.22,.1,.45,.17,.64,.3,.2,.14,.38,.32,.52,.52,.13,.19,.22,.43,.26,.66,.04,.24,.04,.49,0,.73-.17,.85-.97,1.43-1.85,1.39-.86-.04-1.57-.71-1.69-1.59-.12-.9,.44-1.66,1.49-2h-5.41c.48,.12,.88,.37,1.16,.79,.28,.42,.37,.88,.27,1.37-.17,.83-.94,1.45-1.8,1.43-.88-.02-1.6-.67-1.74-1.57-.14-.9,.41-1.65,1.5-2.02-.46,0-.88,0-1.3,0-1.45,0-2.31-1.37-1.65-2.66,.14-.27,.17-.51,.08-.8-.92-3.18-1.82-6.37-2.73-9.55-.01-.05-.03-.1-.06-.17h-.29c-.67,0-1.33-.01-2,0-.37,.01-.65-.1-.81-.45v-.32Zm7.08,10.34h9.93c.68-2.39,1.37-4.78,2.05-7.18H15.47c.69,2.4,1.37,4.79,2.05,7.18Zm2.55,5.41c0-.32-.26-.6-.59-.61-.32,0-.6,.26-.61,.58,0,.33,.27,.61,.6,.62,.32,0,.6-.27,.6-.59Zm5.44,.59c.32,0,.6-.27,.6-.6,0-.33-.28-.61-.61-.6-.32,0-.59,.28-.59,.61,0,.32,.28,.59,.6,.59Z"/></g></g></svg>