<?xml version="1.0" encoding="UTF-8"?><svg id="Calque_2" xmlns="http://www.w3.org/2000/svg" viewBox="0 0 40.39 40.39"><defs><style>.cls-1{fill:#fff;}.cls-2{fill:#864ba2;}</style></defs><g id="Calque_2-2"><g><g id="Groupe_16835"><g id="Chateau"><g id="Tracé_17004-2"><path class="cls-2" d="M20.19,39.49c-2.61,0-5.13-.51-7.51-1.52-2.3-.97-4.36-2.36-6.13-4.14-1.77-1.77-3.16-3.84-4.14-6.13-1.01-2.38-1.52-4.91-1.52-7.51s.51-5.13,1.52-7.51c.97-2.3,2.36-4.36,4.14-6.13,1.77-1.77,3.84-3.16,6.13-4.14,2.38-1.01,4.91-1.52,7.51-1.52s5.13,.51,7.51,1.52c2.3,.97,4.36,2.36,6.13,4.14,1.77,1.77,3.16,3.84,4.14,6.13,1.01,2.38,1.52,4.91,1.52,7.51s-.51,5.13-1.52,7.51c-.97,2.3-2.36,4.36-4.14,6.13-1.77,1.77-3.84,3.16-6.13,4.14-2.38,1.01-4.91,1.52-7.51,1.52Z"/><path class="cls-1" d="M20.19,1.8c-2.48,0-4.89,.49-7.16,1.45-2.19,.93-4.16,2.25-5.85,3.94s-3.02,3.66-3.94,5.85c-.96,2.27-1.45,4.68-1.45,7.16s.49,4.89,1.45,7.16c.93,2.19,2.25,4.16,3.94,5.85s3.66,3.02,5.85,3.94c2.27,.96,4.68,1.45,7.16,1.45s4.89-.49,7.16-1.45c2.19-.93,4.16-2.25,5.85-3.94s3.02-3.66,3.94-5.85c.96-2.27,1.45-4.68,1.45-7.16s-.49-4.89-1.45-7.16c-.93-2.19-2.25-4.16-3.94-5.85s-3.66-3.02-5.85-3.94c-2.27-.96-4.68-1.45-7.16-1.45m0-1.8c11.15,0,20.19,9.04,20.19,20.19s-9.04,20.19-20.19,20.19S0,31.35,0,20.19,9.04,0,20.19,0Z"/></g></g></g><path class="cls-1" d="M10.17,13.15c.14-.29,.37-.39,.69-.38,.75,.02,1.5,0,2.24,0,.36,0,.51,.12,.61,.47,.15,.52,.3,1.04,.45,1.58h.22c4.18,0,8.37,0,12.55,0,.08,0,.17,0,.25,.01,.32,.07,.46,.36,.35,.72-.35,1.23-.71,2.47-1.06,3.7-.31,1.08-.62,2.16-.93,3.25-.1,.37-.25,.47-.64,.47-2.85,0-5.7,0-8.55,0-.18,0-.27,.06-.34,.21-.21,.44,.01,.81,.5,.81,2.8,0,5.6,0,8.4,0,.07,0,.15,0,.22,.01,.25,.06,.42,.29,.4,.54-.02,.26-.24,.46-.52,.47-.52,0-1.04,0-1.56,0-.06,0-.12,0-.18,0,.18,.08,.38,.14,.54,.25,.17,.12,.33,.27,.44,.44,.11,.16,.19,.36,.22,.56,.04,.2,.03,.42,0,.62-.15,.72-.83,1.22-1.57,1.18-.73-.04-1.33-.6-1.44-1.35-.11-.76,.37-1.41,1.27-1.7h-4.61c.41,.1,.75,.31,.99,.67,.24,.36,.31,.75,.23,1.17-.14,.71-.8,1.23-1.53,1.22-.75-.01-1.36-.57-1.48-1.34-.12-.76,.35-1.41,1.28-1.72-.39,0-.75,0-1.1,0-1.23,0-1.96-1.17-1.41-2.27,.12-.23,.14-.43,.07-.68-.78-2.71-1.55-5.42-2.33-8.13-.01-.04-.03-.09-.05-.15h-.25c-.57,0-1.13-.01-1.7,0-.32,0-.55-.08-.69-.38v-.27Zm6.03,8.8h8.45c.58-2.04,1.16-4.07,1.75-6.11H14.45c.58,2.04,1.16,4.08,1.75,6.11Zm2.17,4.6c0-.28-.22-.51-.5-.52-.27,0-.51,.22-.52,.5,0,.28,.23,.52,.51,.52,.28,0,.51-.23,.51-.5Zm4.63,.5c.28,0,.51-.23,.51-.51,0-.28-.24-.52-.52-.51-.27,0-.5,.24-.5,.51,0,.27,.24,.51,.51,.5Z"/></g></g></svg>