<svg xmlns="http://www.w3.org/2000/svg" width="45" height="45" viewBox="0 0 45 45">
  <g id="Chateau_2" data-name="Chateau 2" transform="translate(-1113 -643)">
    <g id="Chateau" transform="translate(303)">
      <path id="Path_17004" data-name="Path 17004" d="M22.5,0A22.5,22.5,0,1,1,0,22.5,22.5,22.5,0,0,1,22.5,0Z" transform="translate(810 643)" fill="#864ba2"/>
      <g id="Group_16822" data-name="Group 16822" transform="translate(-0.412 0.518)">
        <g id="Group_16821" data-name="Group 16821" transform="translate(-109.99 13.419)">
          <path id="Path_16991" data-name="Path 16991" d="M4.961,41.871a.509.509,0,0,1,.516-.24c.111.012.225,0,.336,0,.288.005.414.129.421.423,0,.111,0,.223,0,.334a.235.235,0,0,0,.256.258c.027,0,.053,0,.078,0,.393,0,.431-.034.431-.419,0-.085,0-.172.005-.255a.337.337,0,0,1,.322-.336,5.017,5.017,0,0,1,.61,0,.341.341,0,0,1,.332.348c.007.131,0,.263,0,.394a.237.237,0,0,0,.267.267c.071,0,.143,0,.216,0a.242.242,0,0,0,.281-.272c0-.126,0-.249.011-.375a.354.354,0,0,1,.375-.368c.17-.007.341-.007.511,0a.362.362,0,0,1,.378.35,1.809,1.809,0,0,1,0,.2q.005,4.252.014,8.5c0,.172-.037.212-.21.212-1.719-.007-3.439-.005-5.158-.005Z" transform="translate(927.441 608.201)" fill="#fff"/>
          <path id="Path_16992" data-name="Path 16992" d="M12.713,45.951c.288,0,.578,0,.866,0,.088,0,.127-.016.126-.117-.005-.532.007-1.064-.009-1.595a.982.982,0,0,0-1.961-.005c-.016.53,0,1.063-.009,1.595,0,.118.051.122.14.12.283,0,.564,0,.847,0m-3.959,1.4q0-2.687,0-5.377a.509.509,0,0,0-.111-.341c-.195-.248-.377-.5-.569-.753a.367.367,0,0,1-.081-.251c0-.407,0-.815,0-1.222,0-.332.134-.463.465-.465.131,0,.262,0,.394,0a.378.378,0,0,1,.423.408c.005.117,0,.235,0,.354,0,.173.09.249.255.255.058,0,.118,0,.177,0,.26,0,.324-.065.325-.325.005-.656.039-.691.69-.691a2.034,2.034,0,0,1,.255.005.344.344,0,0,1,.324.336c.009.111.005.223.005.334,0,.285.062.341.352.341.378,0,.412-.034.414-.417a2.481,2.481,0,0,1,.005-.256.342.342,0,0,1,.341-.34,5.1,5.1,0,0,1,.569,0,.352.352,0,0,1,.359.366c.007.126,0,.249.005.375a.244.244,0,0,0,.283.272h.138c.288,0,.347-.06.348-.345,0-.635.042-.672.686-.672.08,0,.159-.005.237,0a.355.355,0,0,1,.348.357c.007.138,0,.276,0,.414a.224.224,0,0,0,.228.242.924.924,0,0,0,.1,0c.4,0,.428-.023.428-.416,0-.073,0-.145,0-.216a.375.375,0,0,1,.407-.385c.157,0,.315,0,.474,0a.363.363,0,0,1,.4.391c.011.453,0,.905.005,1.358a.268.268,0,0,1-.074.175c-.184.248-.362.5-.555.739a.6.6,0,0,0-.134.394q.005,5.366.009,10.733c0,.205-.057.24-.248.239q-3.742-.008-7.485,0c-.164,0-.2-.041-.2-.2q.008-2.708,0-5.416" transform="translate(929.771 606.131)" fill="#fff"/>
          <path id="Path_16993" data-name="Path 16993" d="M13.337,46.373V42.14c0-.4.106-.507.515-.509.131,0,.263,0,.394,0a.35.35,0,0,1,.361.362c.007.131,0,.262,0,.393a.233.233,0,0,0,.256.258c.058,0,.118,0,.177,0,.262,0,.322-.062.325-.324a3.361,3.361,0,0,1,.009-.354.346.346,0,0,1,.366-.336c.177-.007.354-.009.53,0a.361.361,0,0,1,.375.373c.007.118,0,.237,0,.355a.443.443,0,0,0,.019.154c.05.127.281.177.539.126a.219.219,0,0,0,.2-.249c0-.118-.005-.237,0-.354a.376.376,0,0,1,.393-.4c.164-.009.329-.007.493,0a.362.362,0,0,1,.391.355,1.477,1.477,0,0,1,.005.177q.008,4.262.018,8.526c0,.159-.032.2-.2.2q-2.491-.011-4.981,0c-.152,0-.195-.035-.193-.189.007-1.445,0-2.888,0-4.332" transform="translate(933.872 608.202)" fill="#fff"/>
          <path id="Path_16994" data-name="Path 16994" d="M11.092,44.05c-.283,0-.564,0-.847,0-.088,0-.143,0-.14-.122.007-.532-.007-1.064.009-1.595a.982.982,0,0,1,1.961.005c.016.53,0,1.063.009,1.595,0,.1-.037.118-.126.117-.288-.005-.578,0-.866,0" transform="translate(931.393 608.032)" fill="#864ba2"/>
        </g>
      </g>
    </g>
  </g>
</svg>
