<?xml version="1.0" encoding="UTF-8"?><svg id="Calque_2" xmlns="http://www.w3.org/2000/svg" xmlns:xlink="http://www.w3.org/1999/xlink" viewBox="0 0 45 45"><defs><style>.cls-1{fill:#fff;}.cls-2{fill:#864ba2;}.cls-3{clip-path:url(#clippath);}.cls-4{fill:none;}</style><clipPath id="clippath"><rect class="cls-4" x="11.47" y="13.5" width="22.05" height="15.34"/></clipPath></defs><g id="Calque_1-2"><g><path id="Path_17007" class="cls-2" d="M22.5,0c12.43,0,22.5,10.07,22.5,22.5s-10.07,22.5-22.5,22.5S0,34.93,0,22.5,10.07,0,22.5,0Z"/><g class="cls-3"><path class="cls-1" d="M11.47,18.97c.13-.21,.32-.29,.56-.26,.12,.01,.25,0,.37,0,.32,0,.45,.14,.46,.46,0,.12,0,.24,0,.37,0,.18,.1,.28,.28,.28,.03,0,.06,0,.09,0,.43,0,.47-.04,.47-.46,0-.09,0-.19,0-.28,.02-.21,.14-.35,.35-.37,.22-.01,.44-.01,.67,0,.22,.01,.35,.16,.36,.38,0,.14,0,.29,0,.43,0,.2,.1,.29,.29,.29,.08,0,.16,0,.24,0,.2,0,.31-.09,.31-.3,0-.14,0-.27,.01-.41,.02-.26,.16-.39,.41-.4,.19,0,.37,0,.56,0,.24,0,.38,.14,.41,.38,0,.07,0,.14,0,.21,0,3.1,0,6.2,.02,9.29,0,.19-.04,.23-.23,.23-1.88,0-3.76,0-5.64,0v-9.86Z"/><path class="cls-1" d="M22.49,21.17c.32,0,.63,0,.95,0,.1,0,.14-.02,.14-.13,0-.58,0-1.16,0-1.74-.02-.58-.5-1.02-1.07-1.02-.57,0-1.06,.44-1.07,1.01-.02,.58,0,1.16,0,1.74,0,.13,.06,.13,.15,.13,.31,0,.62,0,.93,0m-4.33,1.52c0-1.96,0-3.92,0-5.88,0-.14-.03-.26-.12-.37-.21-.27-.41-.55-.62-.82-.07-.08-.09-.17-.09-.27,0-.44,0-.89,0-1.34,0-.36,.15-.51,.51-.51,.14,0,.29,0,.43,0,.3,0,.45,.15,.46,.45,0,.13,0,.26,0,.39,0,.19,.1,.27,.28,.28,.06,0,.13,0,.19,0,.28,0,.35-.07,.36-.36,0-.72,.04-.76,.75-.76,.09,0,.19,0,.28,0,.21,.03,.34,.16,.35,.37,0,.12,0,.24,0,.37,0,.31,.07,.37,.38,.37,.41,0,.45-.04,.45-.46,0-.09,0-.19,0-.28,.02-.22,.15-.36,.37-.37,.21-.01,.42-.01,.62,0,.24,.01,.38,.16,.39,.4,0,.14,0,.27,0,.41,0,.2,.11,.3,.31,.3h.15c.32,0,.38-.07,.38-.38,0-.69,.05-.73,.75-.73,.09,0,.17,0,.26,0,.23,.02,.37,.16,.38,.39,0,.15,0,.3,0,.45,0,.16,.09,.25,.25,.26,.04,0,.07,0,.11,0,.44,0,.47-.03,.47-.45,0-.08,0-.16,0-.24,.03-.28,.17-.41,.44-.42,.17,0,.34,0,.52,0,.27,0,.43,.15,.43,.43,.01,.49,0,.99,0,1.48,0,.08-.04,.14-.08,.19-.2,.27-.4,.54-.61,.81-.1,.13-.15,.26-.15,.43,0,3.91,0,7.82,0,11.73,0,.22-.06,.26-.27,.26-2.73,0-5.45,0-8.18,0-.18,0-.22-.04-.22-.22,0-1.97,0-3.95,0-5.92"/><path class="cls-1" d="M27.66,23.9v-4.63c0-.44,.12-.55,.56-.56,.14,0,.29,0,.43,0,.24,.01,.38,.15,.39,.4,0,.14,0,.29,0,.43,0,.19,.1,.28,.28,.28,.06,0,.13,0,.19,0,.29,0,.35-.07,.36-.35,0-.13,0-.26,0-.39,.03-.23,.16-.36,.4-.37,.19,0,.39,0,.58,0,.25,0,.39,.15,.41,.41,0,.13,0,.26,0,.39,0,.06,0,.12,.02,.17,.05,.14,.31,.19,.59,.14,.15-.03,.22-.12,.21-.27,0-.13,0-.26,0-.39,.01-.27,.16-.42,.43-.44,.18,0,.36,0,.54,0,.26,0,.4,.14,.43,.39,0,.06,0,.13,0,.19,0,3.11,0,6.21,.02,9.32,0,.17-.03,.22-.22,.22-1.81,0-3.63,0-5.44,0-.17,0-.21-.04-.21-.21,0-1.58,0-3.16,0-4.73"/></g></g></g></svg>