<svg xmlns="http://www.w3.org/2000/svg" xmlns:xlink="http://www.w3.org/1999/xlink" width="58.213" height="60.091" viewBox="0 0 58.213 60.091">
  <defs>
    <clipPath id="clip-path">
      <rect id="Rectangle_4054" data-name="Rectangle 4054" width="58.213" height="60.091" fill="none"/>
    </clipPath>
  </defs>
  <g id="Groupe_16856" data-name="Groupe 16856" transform="translate(0 0)">
    <g id="Groupe_16855" data-name="Groupe 16855" transform="translate(0 0)">
      <g id="Groupe_16854" data-name="Groupe 16854" clip-path="url(#clip-path)">
        <path id="Tracé_17040" data-name="Tracé 17040" d="M52.815,60.091a5.311,5.311,0,0,0,5.4-5.4V5.282A5.286,5.286,0,0,0,52.815,0H5.4A5.286,5.286,0,0,0,0,5.282V54.693a5.311,5.311,0,0,0,5.4,5.4Z" transform="translate(0 0)" fill="#be0a23"/>
        <path id="Tracé_17041" data-name="Tracé 17041" d="M51.628,56.91a3.406,3.406,0,0,0,3.4-3.4V4.095a3.309,3.309,0,0,0-3.4-3.286H4.212A3.307,3.307,0,0,0,.81,4.095V53.505a3.4,3.4,0,0,0,3.4,3.4Z" transform="translate(1.187 1.185)" fill="#fff"/>
        <path id="Tracé_17042" data-name="Tracé 17042" d="M44.209,30.5V17h4.462v1.76H46.206v3.991h2.347v1.76H46.206v4.225h2.465V30.5ZM42.92,17v1.526l-2.7,10.21h2.7V30.5H38.106v-1.41l2.7-10.328h-2.7V17Zm-7.982,0h1.994V30.5H34.939Zm-3.872,8.1L30.6,19.463h-.118L30.009,25.1Zm-2-8.1h3.052l1.526,13.5H31.535l-.352-3.638H29.775L29.3,30.494h-1.76ZM20.385,30.5V17H22.38v5.751h1.878V17h2V30.5h-2V24.509H22.38V30.5Zm-5.164,0V17h2V28.734H19.8V30.5Zm-5.869,0V17h4.462v1.76H11.349v3.991H13.7v1.76H11.349v4.225H13.93V30.5ZM4.425,28.852h.468c.468,0,.7-.118.7-.939V19.579c0-.821-.237-.937-.7-.937H4.425ZM2.428,17H4.775c2,0,2.936.7,2.936,3.052v7.979A2.407,2.407,0,0,1,5.245,30.5H2.428Z" transform="translate(3.557 24.902)" fill="#be0a23"/>
      </g>
    </g>
    <path id="Tracé_17043" data-name="Tracé 17043" d="M6.067,4.37h5.046L11.936,3.2h6.219L22.03,1.9,20.857,5.9l1.523-.821.471,10.562H44.328v-2.7H26.489L25.432,8.126l1.057-4.814H47.966V8.595l-2.7-2.7H28.6l-.587,2.231.587,2.347H45.62l2.347,2.347V21.5l2.465,9.389-1.762,4.93H41.042l.939-2.465,2.581-.7,1.173-2.231-3.286-3.17-4.577,5.635L37.4,35.823H29.3l.589-2.465,2.228-.7,6.1-10.094-8.1,3.52H22.5l-2.112,4.225,2.231,3.286-.587,2.231H13.577l.471-2.465,2.581-.7L14.4,27.139,9.237,33.592l.587,2.231H2.428l.587-2.465L4.893,32.3l3.286-4.93L6.772,22.8l-2.7,1.292L8.063,13.525,6.3,11.06,7.358,9.768l2.581,1.76,2.112-2.347H5.362l-.468,1.173L3.72,10.12l.234-1.878H11.7l-.939-1.173-3.638.587Z" transform="translate(3.557 2.79)" fill="#0c0c0d"/>
  </g>
</svg>
