<?xml version="1.0" encoding="UTF-8"?><svg id="Calque_2" xmlns="http://www.w3.org/2000/svg" xmlns:xlink="http://www.w3.org/1999/xlink" viewBox="0 0 45 45"><defs><style>.cls-1{fill:#fff;}.cls-2{fill:#864ba2;}.cls-3{clip-path:url(#clippath);}.cls-4{fill:none;}</style><clipPath id="clippath"><rect class="cls-4" x="10.59" y="13" width="23.82" height="20.34"/></clipPath></defs><g id="Calque_1-2"><g><path id="Path_17007" class="cls-2" d="M22.5,0c12.43,0,22.5,10.07,22.5,22.5s-10.07,22.5-22.5,22.5S0,34.93,0,22.5,10.07,0,22.5,0Z"/><g class="cls-3"><path class="cls-1" d="M34.41,27.93c-.12,.21-.15,.46-.28,.67-.19,.29-.41,.56-.71,.72-.19,.1-.18,.19-.12,.36,.34,1,.67,2.01,1.01,3.02,.06,.17,.05,.25-.14,.31-.28,.07-.56,.17-.84,.28-.21,.08-.3,.06-.37-.18-.19-.63-.41-1.25-.64-1.94-.07,.2-.11,.33-.15,.46-.17,.51-.35,1.03-.51,1.54-.05,.15-.09,.2-.26,.14-.3-.12-.61-.22-.93-.3-.2-.05-.2-.14-.14-.31,.35-1.02,.68-2.04,1.03-3.06,.05-.14,.03-.21-.1-.29-.71-.43-1.07-1.08-1.02-1.91,.05-.83,.48-1.43,1.23-1.78,.13-.06,.16-.13,.16-.26,0-2.09,0-4.18,0-6.27,0-.22-.06-.21-.23-.14-2.89,1.16-5.78,2.32-8.67,3.47-.14,.05-.25,.1-.42,.03-3.87-1.56-7.73-3.11-11.6-4.66-.04-.01-.07-.03-.11-.05,0-.09,.09-.08,.14-.1,3.85-1.55,7.71-3.09,11.56-4.64,.17-.07,.29-.03,.44,.03,3.81,1.53,7.62,3.06,11.43,4.59,.07,.03,.13,.04,.2,.06,.01,.12-.1,.1-.16,.13-.33,.15-.67,.29-1.01,.42-.12,.05-.18,.1-.18,.25,0,2.3,0,4.61,0,6.91,0,.14,.05,.19,.16,.23,.31,.13,.56,.34,.78,.6,.24,.29,.33,.63,.46,.97v.7Z"/><path class="cls-1" d="M28.76,21.53c0,.65,.02,1.28,0,1.91-.03,.83-.48,1.44-1.1,1.94-.89,.71-1.94,1.07-3.04,1.27-1.9,.34-3.79,.28-5.63-.36-.88-.3-1.67-.74-2.27-1.47-.31-.38-.52-.82-.53-1.32-.02-.65,0-1.3,0-1.97,.72,.29,1.43,.57,2.14,.86,1.32,.53,2.65,1.06,3.97,1.6,.13,.05,.24,.05,.37,0,1.96-.79,3.92-1.58,5.88-2.36,.07-.03,.14-.05,.22-.08"/></g></g></g></svg>