<svg xmlns="http://www.w3.org/2000/svg" xmlns:xlink="http://www.w3.org/1999/xlink" width="63" height="63" viewBox="0 0 63 63">
  <defs>
    <filter id="Tracé_17006" x="0" y="0" width="63" height="63" filterUnits="userSpaceOnUse">
      <feOffset dy="3" input="SourceAlpha"/>
      <feGaussianBlur stdDeviation="3" result="blur"/>
      <feFlood flood-opacity="0.161"/>
      <feComposite operator="in" in2="blur"/>
      <feComposite in="SourceGraphic"/>
    </filter>
    <clipPath id="clip-path">
      <rect id="Rectangle_4052" data-name="Rectangle 4052" width="23.818" height="20.337" transform="translate(0 0)" fill="none"/>
    </clipPath>
  </defs>
  <g id="Groupe_16840" data-name="Groupe 16840" transform="translate(-819 -8)">
    <g id="Groupe_16837" data-name="Groupe 16837">
      <g id="Groupe_16836" data-name="Groupe 16836" transform="translate(-44 -570)">
        <g id="Salle_de_sport" data-name="Salle de sport">
          <g transform="matrix(1, 0, 0, 1, 863, 578)" filter="url(#Tracé_17006)">
            <g id="Tracé_17006-2" data-name="Tracé 17006" transform="translate(9 6)" fill="#864ba2">
              <path d="M 22.5 44 C 19.59708023071289 44 16.78152084350586 43.43167877197266 14.13154029846191 42.31082916259766 C 11.57145023345947 41.22800827026367 9.272049903869629 39.67763900756836 7.297200202941895 37.70280075073242 C 5.322360038757324 35.72795104980469 3.771990060806274 33.42855072021484 2.689169883728027 30.86845970153809 C 1.568320035934448 28.21847915649414 1 25.40291976928711 1 22.5 C 1 19.59708023071289 1.568320035934448 16.78152084350586 2.689169883728027 14.13154029846191 C 3.771990060806274 11.57145023345947 5.322360038757324 9.272049903869629 7.297200202941895 7.297200202941895 C 9.272049903869629 5.322360038757324 11.57145023345947 3.771990060806274 14.13154029846191 2.689169883728027 C 16.78152084350586 1.568320035934448 19.59708023071289 1 22.5 1 C 25.40291976928711 1 28.21847915649414 1.568320035934448 30.86845970153809 2.689169883728027 C 33.42855072021484 3.771990060806274 35.72795104980469 5.322360038757324 37.70280075073242 7.297200202941895 C 39.67763900756836 9.272049903869629 41.22800827026367 11.57145023345947 42.31082916259766 14.13154029846191 C 43.43167877197266 16.78152084350586 44 19.59708023071289 44 22.5 C 44 25.40291976928711 43.43167877197266 28.21847915649414 42.31082916259766 30.86845970153809 C 41.22800827026367 33.42855072021484 39.67763900756836 35.72795104980469 37.70280075073242 37.70280075073242 C 35.72795104980469 39.67763900756836 33.42855072021484 41.22800827026367 30.86845970153809 42.31082916259766 C 28.21847915649414 43.43167877197266 25.40291976928711 44 22.5 44 Z" stroke="none"/>
              <path d="M 22.5 2 C 19.73163986206055 2 17.04714012145996 2.541740417480469 14.52108955383301 3.61016845703125 C 12.0802001953125 4.642578125 9.887641906738281 6.120979309082031 8.004310607910156 8.004310607910156 C 6.120979309082031 9.887641906738281 4.642578125 12.0802001953125 3.61016845703125 14.52108955383301 C 2.541740417480469 17.04714012145996 2 19.73163986206055 2 22.5 C 2 25.26836013793945 2.541740417480469 27.95285987854004 3.61016845703125 30.47891044616699 C 4.642578125 32.9197998046875 6.120979309082031 35.11235809326172 8.004310607910156 36.99568939208984 C 9.887641906738281 38.87902069091797 12.0802001953125 40.357421875 14.52108955383301 41.38983154296875 C 17.04714012145996 42.45825958251953 19.73163986206055 43 22.5 43 C 25.26836013793945 43 27.95285987854004 42.45825958251953 30.47891044616699 41.38983154296875 C 32.9197998046875 40.357421875 35.11235809326172 38.87902069091797 36.99568939208984 36.99568939208984 C 38.87902069091797 35.11235809326172 40.357421875 32.9197998046875 41.38983154296875 30.47891044616699 C 42.45825958251953 27.95285987854004 43 25.26836013793945 43 22.5 C 43 19.73163986206055 42.45825958251953 17.04714012145996 41.38983154296875 14.52108955383301 C 40.357421875 12.0802001953125 38.87902069091797 9.887641906738281 36.99568939208984 8.004310607910156 C 35.11235809326172 6.120979309082031 32.9197998046875 4.642578125 30.47891044616699 3.61016845703125 C 27.95285987854004 2.541740417480469 25.26836013793945 2 22.5 2 M 22.5 0 C 34.92641067504883 0 45 10.07358932495117 45 22.5 C 45 34.92641067504883 34.92641067504883 45 22.5 45 C 10.07358932495117 45 0 34.92641067504883 0 22.5 C 0 10.07358932495117 10.07358932495117 0 22.5 0 Z" stroke="none" fill="#fff"/>
            </g>
          </g>
        </g>
      </g>
    </g>
    <g id="Groupe_16839" data-name="Groupe 16839" transform="translate(838 28)">
      <g id="Groupe_16838" data-name="Groupe 16838" clip-path="url(#clip-path)">
        <path id="Tracé_17029" data-name="Tracé 17029" d="M23.818,14.925c-.122.213-.15.462-.283.673a1.947,1.947,0,0,1-.714.719c-.186.1-.183.194-.125.363.342,1,.671,2.015,1.015,3.019.057.17.053.255-.143.307a7.02,7.02,0,0,0-.837.279c-.207.08-.3.063-.37-.179-.185-.629-.409-1.246-.643-1.938-.065.2-.108.329-.152.462-.172.514-.348,1.028-.514,1.544-.046.146-.091.2-.257.135a8.522,8.522,0,0,0-.928-.3c-.2-.054-.2-.144-.139-.309.346-1.019.679-2.043,1.028-3.062.048-.144.035-.212-.1-.294a2.072,2.072,0,0,1,.207-3.685.24.24,0,0,0,.159-.26q-.007-3.135,0-6.274c0-.222-.061-.209-.229-.142Q16.46,7.718,12.123,9.45a.5.5,0,0,1-.416.03Q5.908,7.145.107,4.822A1.014,1.014,0,0,1,0,4.776c.007-.092.09-.081.138-.1Q5.913,2.355,11.694.035a.533.533,0,0,1,.437.03q5.715,2.3,11.428,4.589c.065.026.133.041.2.061.013.122-.1.1-.159.128-.333.146-.666.286-1.006.416a.226.226,0,0,0-.177.247q.007,3.456,0,6.914a.216.216,0,0,0,.164.233,2.124,2.124,0,0,1,.782.6,3.066,3.066,0,0,1,.457.969Z" fill="#fff"/>
        <path id="Tracé_17030" data-name="Tracé 17030" d="M18.17,8.535c0,.649.02,1.278,0,1.906a2.585,2.585,0,0,1-1.1,1.942,6.632,6.632,0,0,1-3.036,1.27A11.03,11.03,0,0,1,8.4,13.3a4.8,4.8,0,0,1-2.272-1.475,2.188,2.188,0,0,1-.533-1.315c-.02-.649,0-1.3,0-1.973.719.287,1.431.57,2.139.856q1.983.794,3.966,1.6a.447.447,0,0,0,.37,0Q15,9.8,17.95,8.62l.22-.085" fill="#fff"/>
      </g>
    </g>
  </g>
</svg>
