<?xml version="1.0" encoding="UTF-8"?><svg id="Calque_2" xmlns="http://www.w3.org/2000/svg" viewBox="0 0 44.61 44.53"><defs><style>.cls-1{fill:#fff;}.cls-2{fill:#864ba2;stroke:#fff;stroke-miterlimit:10;}</style></defs><g id="Calque_1-2"><g><path class="cls-2" d="M22.3,44.03c-2.94,0-5.8-.58-8.49-1.71-2.6-1.1-4.93-2.67-6.93-4.67-2-2-3.57-4.33-4.67-6.92-1.14-2.68-1.71-5.53-1.71-8.47s.58-5.79,1.71-8.47c1.1-2.59,2.67-4.92,4.67-6.92,2-2,4.33-3.57,6.93-4.67,2.69-1.13,5.54-1.71,8.49-1.71s5.8,.58,8.49,1.71c2.6,1.1,4.93,2.67,6.93,4.67,2,2,3.57,4.33,4.67,6.92,1.14,2.68,1.71,5.53,1.71,8.47s-.58,5.79-1.71,8.47c-1.1,2.59-2.67,4.92-4.67,6.92-2,2-4.33,3.57-6.93,4.67-2.69,1.13-5.54,1.71-8.49,1.71Z"/><g><path class="cls-1" d="M23.58,24.98c-.68-.3-.81-.8-.39-1.38,.41-.56,.81-1.12,1.22-1.67,.1-.13,.09-.21,0-.33-.52-.71-1.04-1.42-1.56-2.14-.03-.05-.04-.11-.06-.16,.06-.02,.11-.05,.17-.05,.14,0,.29,.01,.43,0,.1-.01,.22-.05,.29-.12,.15-.13,.14-.32,0-.54-.72-1.06-1.45-2.12-2.17-3.18-.08-.12-.13-.24-.2-.37,.14-.02,.29-.05,.43-.06,.15,0,.32,0,.36-.16,.03-.11-.02-.27-.09-.37-.68-.95-1.38-1.88-2.07-2.82-.22-.3-.46-.3-.68,0-.31,.41-.61,.82-.91,1.24-.4,.54-.81,1.08-1.2,1.64-.06,.08-.09,.24-.05,.33,.03,.08,.18,.12,.28,.15,.1,.02,.22,0,.33,0,.06,0,.11,.03,.17,.05-.02,.05-.03,.11-.05,.16-.02,.04-.04,.07-.07,.1-.75,1.1-1.5,2.2-2.25,3.3-.09,.14-.15,.28-.07,.44,.08,.17,.23,.22,.41,.21,.14,0,.29,0,.43,0,.13,0,.16,.07,.09,.18-.03,.04-.06,.08-.08,.12-.81,1.11-1.61,2.22-2.42,3.33-.1,.14-.14,.28-.06,.44,.08,.16,.22,.21,.39,.21,.18,0,.36,0,.53,0,.26,0,.28,.03,.15,.26-.63,1.13-1.26,2.25-1.89,3.38-.08,.15-.12,.29-.03,.44,.1,.16,.26,.18,.43,.18,1.59,0,3.18,0,4.78,0h.29c0,.09,0,.15,0,.22,0,.48,0,.96,0,1.43,0,.33,.16,.49,.49,.49,.44,0,.87,0,1.31,0,.37,0,.52-.15,.52-.53,0-.46,0-.93,0-1.39,0-.07,0-.14,.01-.24h1.56c-.1-.3-.03-.55,.12-.78,.11-.18,.21-.37,.31-.55,.27-.48,.54-.96,.81-1.46Zm3.5,2.81c0,.1,0,.18,0,.25,0,.48,0,.96,0,1.43,0,.35,.12,.46,.47,.46,.29,0,.59,0,.88,0,.31,0,.44-.12,.44-.43,0-.49,0-.98,0-1.48,0-.07,0-.15,.01-.24h.26c1.2,0,2.4,0,3.61,0,.39,0,.51-.2,.32-.54-.47-.84-.94-1.68-1.41-2.52-.04-.07-.06-.14-.11-.25,.2,0,.35,0,.51,0,.16,0,.32,0,.41-.17,.09-.18-.02-.3-.12-.42-.6-.82-1.2-1.64-1.79-2.47-.04-.06-.08-.13-.15-.25,.21,0,.36,0,.52,0,.26-.02,.37-.23,.24-.45-.03-.06-.07-.11-.11-.17-.55-.81-1.11-1.62-1.66-2.44-.04-.06-.07-.13-.12-.23,.1,0,.16,0,.22-.01,.06,0,.12,0,.18,0,.24-.01,.33-.18,.19-.37-.55-.76-1.11-1.51-1.67-2.26-.14-.19-.33-.19-.46,0-.56,.75-1.12,1.51-1.68,2.27-.13,.18-.04,.35,.19,.37,.13,0,.25,0,.43,0-.06,.11-.09,.18-.14,.25-.57,.84-1.14,1.68-1.72,2.52-.08,.12-.16,.26-.06,.37,.07,.08,.21,.13,.33,.15,.13,.03,.26,0,.45,0-.08,.12-.11,.19-.15,.24-.61,.84-1.22,1.68-1.83,2.52-.08,.11-.16,.23-.08,.38,.08,.15,.21,.17,.36,.17,.17,0,.35,0,.57,0-.06,.12-.09,.19-.13,.26-.48,.85-.95,1.7-1.43,2.56-.15,.27-.03,.47,.28,.49,.05,0,.11,0,.16,0,1.17,0,2.35,0,3.52,0h.26Z"/><path class="cls-1" d="M23.58,24.98c-.28,.5-.54,.98-.81,1.46-.1,.18-.2,.37-.31,.55-.14,.24-.22,.48-.12,.78h-1.56c0,.09-.01,.17-.01,.24,0,.46,0,.93,0,1.39,0,.37-.15,.53-.52,.53-.44,0-.87,0-1.31,0-.33,0-.49-.16-.49-.49,0-.48,0-.96,0-1.43,0-.07,0-.13,0-.22h-.29c-1.59,0-3.18,0-4.78,0-.17,0-.33-.02-.43-.18-.09-.15-.05-.3,.03-.44,.63-1.12,1.26-2.25,1.89-3.38,.13-.23,.11-.26-.15-.26-.18,0-.36,0-.53,0-.17,0-.31-.04-.39-.21-.08-.16-.04-.3,.06-.44,.81-1.11,1.62-2.22,2.42-3.33,.03-.04,.06-.08,.08-.12,.07-.11,.04-.17-.09-.18-.14,0-.29,0-.43,0-.18,0-.32-.04-.41-.21-.08-.16-.02-.3,.07-.44,.75-1.1,1.5-2.2,2.25-3.3,.02-.03,.05-.07,.07-.1,.02-.05,.04-.11,.05-.16-.06-.02-.11-.04-.17-.05-.11,0-.22,.02-.33,0-.1-.02-.25-.07-.28-.15-.04-.09-.01-.25,.05-.33,.39-.55,.8-1.09,1.2-1.64,.3-.41,.61-.83,.91-1.24,.22-.29,.46-.29,.68,0,.69,.94,1.39,1.88,2.07,2.82,.07,.1,.11,.26,.09,.37-.04,.17-.21,.15-.36,.16-.14,0-.29,.04-.43,.06,.07,.12,.12,.25,.2,.37,.72,1.06,1.44,2.12,2.17,3.18,.15,.22,.16,.4,0,.54-.08,.07-.19,.1-.29,.12-.14,.02-.29,0-.43,0-.06,0-.11,.03-.17,.05,.02,.05,.03,.12,.06,.16,.52,.71,1.03,1.43,1.56,2.14,.09,.12,.1,.21,0,.33-.41,.55-.82,1.11-1.22,1.67-.42,.58-.29,1.08,.39,1.38Z"/><path class="cls-1" d="M27.08,27.79h-.26c-1.17,0-2.35,0-3.52,0-.05,0-.11,0-.16,0-.31-.01-.43-.21-.28-.49,.47-.85,.95-1.7,1.43-2.56,.04-.07,.07-.14,.13-.26-.22,0-.4,0-.57,0-.15,0-.29-.02-.36-.17-.07-.15,0-.26,.08-.38,.61-.84,1.22-1.68,1.83-2.52,.04-.06,.08-.12,.15-.24-.19,0-.32,.02-.45,0-.12-.02-.25-.07-.33-.15-.1-.12-.03-.25,.06-.37,.57-.84,1.15-1.68,1.72-2.52,.04-.06,.07-.14,.14-.25-.17,0-.3,0-.43,0-.23-.01-.32-.18-.19-.37,.55-.76,1.11-1.52,1.68-2.27,.14-.18,.32-.18,.46,0,.56,.75,1.11,1.5,1.67,2.26,.14,.19,.05,.36-.19,.37-.06,0-.12,0-.18,0-.06,0-.12,0-.22,.01,.05,.09,.07,.16,.12,.23,.55,.81,1.11,1.63,1.66,2.44,.04,.06,.08,.11,.11,.17,.12,.22,.01,.43-.24,.45-.15,0-.31,0-.52,0,.07,.12,.1,.19,.15,.25,.6,.82,1.2,1.65,1.79,2.47,.09,.13,.2,.25,.12,.42-.09,.17-.25,.17-.41,.17-.16,0-.31,0-.51,0,.05,.11,.07,.18,.11,.25,.47,.84,.94,1.68,1.41,2.52,.19,.34,.08,.54-.32,.54-1.2,0-2.4,0-3.61,0h-.26c0,.09-.01,.16-.01,.24,0,.49,0,.98,0,1.48,0,.31-.13,.43-.44,.43-.29,0-.59,0-.88,0-.35,0-.47-.11-.47-.46,0-.48,0-.96,0-1.43,0-.07,0-.15,0-.25Z"/></g></g></g></svg>