<svg xmlns="http://www.w3.org/2000/svg" xmlns:xlink="http://www.w3.org/1999/xlink" width="63" height="63" viewBox="0 0 63 63">
  <defs>
    <filter id="Tracé_17006" x="0" y="0" width="63" height="63" filterUnits="userSpaceOnUse">
      <feOffset dy="3" input="SourceAlpha"/>
      <feGaussianBlur stdDeviation="3" result="blur"/>
      <feFlood flood-opacity="0.161"/>
      <feComposite operator="in" in2="blur"/>
      <feComposite in="SourceGraphic"/>
    </filter>
    <clipPath id="clip-path">
      <rect id="Rectangle_4052" data-name="Rectangle 4052" width="20.257" height="18.521" transform="translate(0 0)" fill="none"/>
    </clipPath>
  </defs>
  <g id="Groupe_16847" data-name="Groupe 16847" transform="translate(-819 -8)">
    <g id="Groupe_16844" data-name="Groupe 16844">
      <g id="Groupe_16843" data-name="Groupe 16843">
        <g id="Groupe_16840" data-name="Groupe 16840">
          <g id="Groupe_16837" data-name="Groupe 16837">
            <g id="Groupe_16836" data-name="Groupe 16836" transform="translate(-44 -570)">
              <g id="Salle_de_sport" data-name="Salle de sport">
                <g transform="matrix(1, 0, 0, 1, 863, 578)" filter="url(#Tracé_17006)">
                  <g id="Tracé_17006-2" data-name="Tracé 17006" transform="translate(9 6)" fill="#864ba2">
                    <path d="M 22.5 44 C 19.59708023071289 44 16.78152084350586 43.43167877197266 14.13154029846191 42.31082916259766 C 11.57145023345947 41.22800827026367 9.272049903869629 39.67763900756836 7.297200202941895 37.70280075073242 C 5.322360038757324 35.72795104980469 3.771990060806274 33.42855072021484 2.689169883728027 30.86845970153809 C 1.568320035934448 28.21847915649414 1 25.40291976928711 1 22.5 C 1 19.59708023071289 1.568320035934448 16.78152084350586 2.689169883728027 14.13154029846191 C 3.771990060806274 11.57145023345947 5.322360038757324 9.272049903869629 7.297200202941895 7.297200202941895 C 9.272049903869629 5.322360038757324 11.57145023345947 3.771990060806274 14.13154029846191 2.689169883728027 C 16.78152084350586 1.568320035934448 19.59708023071289 1 22.5 1 C 25.40291976928711 1 28.21847915649414 1.568320035934448 30.86845970153809 2.689169883728027 C 33.42855072021484 3.771990060806274 35.72795104980469 5.322360038757324 37.70280075073242 7.297200202941895 C 39.67763900756836 9.272049903869629 41.22800827026367 11.57145023345947 42.31082916259766 14.13154029846191 C 43.43167877197266 16.78152084350586 44 19.59708023071289 44 22.5 C 44 25.40291976928711 43.43167877197266 28.21847915649414 42.31082916259766 30.86845970153809 C 41.22800827026367 33.42855072021484 39.67763900756836 35.72795104980469 37.70280075073242 37.70280075073242 C 35.72795104980469 39.67763900756836 33.42855072021484 41.22800827026367 30.86845970153809 42.31082916259766 C 28.21847915649414 43.43167877197266 25.40291976928711 44 22.5 44 Z" stroke="none"/>
                    <path d="M 22.5 2 C 19.73163986206055 2 17.04714012145996 2.541740417480469 14.52108955383301 3.61016845703125 C 12.0802001953125 4.642578125 9.887641906738281 6.120979309082031 8.004310607910156 8.004310607910156 C 6.120979309082031 9.887641906738281 4.642578125 12.0802001953125 3.61016845703125 14.52108955383301 C 2.541740417480469 17.04714012145996 2 19.73163986206055 2 22.5 C 2 25.26836013793945 2.541740417480469 27.95285987854004 3.61016845703125 30.47891044616699 C 4.642578125 32.9197998046875 6.120979309082031 35.11235809326172 8.004310607910156 36.99568939208984 C 9.887641906738281 38.87902069091797 12.0802001953125 40.357421875 14.52108955383301 41.38983154296875 C 17.04714012145996 42.45825958251953 19.73163986206055 43 22.5 43 C 25.26836013793945 43 27.95285987854004 42.45825958251953 30.47891044616699 41.38983154296875 C 32.9197998046875 40.357421875 35.11235809326172 38.87902069091797 36.99568939208984 36.99568939208984 C 38.87902069091797 35.11235809326172 40.357421875 32.9197998046875 41.38983154296875 30.47891044616699 C 42.45825958251953 27.95285987854004 43 25.26836013793945 43 22.5 C 43 19.73163986206055 42.45825958251953 17.04714012145996 41.38983154296875 14.52108955383301 C 40.357421875 12.0802001953125 38.87902069091797 9.887641906738281 36.99568939208984 8.004310607910156 C 35.11235809326172 6.120979309082031 32.9197998046875 4.642578125 30.47891044616699 3.61016845703125 C 27.95285987854004 2.541740417480469 25.26836013793945 2 22.5 2 M 22.5 0 C 34.92641067504883 0 45 10.07358932495117 45 22.5 C 45 34.92641067504883 34.92641067504883 45 22.5 45 C 10.07358932495117 45 0 34.92641067504883 0 22.5 C 0 10.07358932495117 10.07358932495117 0 22.5 0 Z" stroke="none" fill="#fff"/>
                  </g>
                </g>
              </g>
            </g>
          </g>
        </g>
      </g>
    </g>
    <g id="Groupe_16846" data-name="Groupe 16846" transform="translate(840.371 25)">
      <g id="Groupe_16845" data-name="Groupe 16845" clip-path="url(#clip-path)">
        <path id="Tracé_17029" data-name="Tracé 17029" d="M10.684,13.568a.813.813,0,0,1-.386-1.376c.406-.558.808-1.118,1.222-1.669a.232.232,0,0,0,0-.334c-.524-.708-1.04-1.422-1.555-2.136A.718.718,0,0,1,9.9,7.891a.709.709,0,0,1,.169-.05c.143-.007.289.012.43-.008a.584.584,0,0,0,.291-.116c.153-.133.142-.316-.007-.535Q9.7,5.59,8.615,4a4.065,4.065,0,0,1-.2-.367c.143-.02.285-.049.429-.056s.322.006.359-.16a.511.511,0,0,0-.088-.368C8.43,2.1,7.734,1.162,7.041.223c-.219-.3-.459-.3-.676-.006-.306.411-.608.825-.912,1.237-.4.544-.808,1.084-1.2,1.636a.4.4,0,0,0-.049.331c.034.076.178.121.282.146a2.216,2.216,0,0,0,.327.008.8.8,0,0,1,.168.048c-.017.055-.031.112-.053.164a.679.679,0,0,1-.068.1Q3.738,5.54,2.613,7.19a.4.4,0,0,0-.069.438.393.393,0,0,0,.409.211c.143,0,.287,0,.43,0,.125.005.158.068.088.175-.026.04-.056.078-.084.116Q2.175,9.8.964,11.461A.4.4,0,0,0,.9,11.9a.382.382,0,0,0,.391.207c.178,0,.355,0,.533,0,.264,0,.28.03.149.265Q1.029,14.06.083,15.747a.416.416,0,0,0-.031.444.433.433,0,0,0,.427.184q2.388,0,4.775,0H5.54v.218c0,.479,0,.957,0,1.435a.433.433,0,0,0,.491.492c.437,0,.874,0,1.311,0,.367,0,.519-.154.521-.527,0-.464,0-.929,0-1.393,0-.072.006-.144.011-.238H9.439a.891.891,0,0,1,.119-.783c.11-.181.209-.368.312-.553.269-.481.537-.963.814-1.458m3.495,2.806v.25c0,.478,0,.956,0,1.434,0,.349.116.461.471.462.294,0,.588,0,.881,0,.311,0,.437-.125.44-.434,0-.492,0-.984,0-1.475,0-.073.006-.145.01-.237h.262q1.8,0,3.607,0c.392,0,.506-.195.316-.537q-.7-1.26-1.408-2.519c-.037-.066-.063-.139-.112-.247.2,0,.355,0,.51,0s.319.007.407-.166-.023-.3-.115-.425q-.9-1.234-1.8-2.468c-.045-.061-.079-.13-.149-.249.211,0,.365.008.519,0a.284.284,0,0,0,.243-.451c-.033-.059-.074-.114-.113-.17Q17.325,7.922,16.5,6.7a2.29,2.29,0,0,1-.116-.225c.1-.005.159-.009.219-.01s.124,0,.185,0c.242-.013.333-.181.192-.374q-.827-1.134-1.666-2.258a.263.263,0,0,0-.462-.009Q14,4.957,13.169,6.1c-.133.183-.041.353.186.366.126.008.253,0,.426,0-.061.112-.092.184-.136.248q-.857,1.262-1.718,2.522c-.081.118-.16.255-.056.372a.615.615,0,0,0,.329.15,2.58,2.58,0,0,0,.449.006c-.076.123-.111.186-.153.244q-.915,1.26-1.832,2.517c-.083.114-.156.228-.083.376a.343.343,0,0,0,.364.169c.174,0,.347,0,.569,0-.062.122-.1.193-.133.262q-.714,1.276-1.427,2.555c-.151.271-.034.472.276.486.054,0,.109,0,.164,0h3.785Z" fill="#fff"/>
        <path id="Tracé_17030" data-name="Tracé 17030" d="M10.683,13.568l-.814,1.458c-.1.185-.2.372-.312.553a.891.891,0,0,0-.119.783H7.874c-.005.094-.011.166-.011.238,0,.464,0,.929,0,1.393,0,.373-.154.526-.521.527-.437,0-.874,0-1.311,0a.433.433,0,0,1-.49-.493c0-.478,0-.956,0-1.434v-.219H5.253q-2.386,0-4.775,0a.433.433,0,0,1-.427-.184.414.414,0,0,1,.032-.444q.948-1.686,1.888-3.376c.131-.235.115-.263-.149-.265-.177,0-.355,0-.533,0A.383.383,0,0,1,.9,11.9a.4.4,0,0,1,.065-.439Q2.176,9.8,3.386,8.132c.028-.038.058-.076.084-.116.07-.107.038-.17-.087-.175-.144-.006-.287-.005-.431,0a.394.394,0,0,1-.409-.211.4.4,0,0,1,.069-.438q1.126-1.648,2.25-3.3a.672.672,0,0,0,.067-.1,1.549,1.549,0,0,0,.053-.163.8.8,0,0,0-.168-.049,2.216,2.216,0,0,1-.327-.008c-.1-.025-.248-.069-.282-.146a.4.4,0,0,1,.049-.331c.39-.552.8-1.092,1.2-1.636.3-.412.606-.826.912-1.237.218-.291.458-.289.676.006.694.94,1.389,1.878,2.073,2.824a.516.516,0,0,1,.089.368c-.038.166-.214.152-.36.16s-.286.037-.429.056c.066.123.123.252.2.368q1.08,1.593,2.166,3.183c.149.219.16.4.008.535a.588.588,0,0,1-.292.116c-.141.02-.287,0-.43.008a.722.722,0,0,0-.169.05.718.718,0,0,0,.063.162c.516.714,1.031,1.428,1.555,2.136a.232.232,0,0,1,0,.334c-.414.551-.816,1.111-1.222,1.669a.813.813,0,0,0,.386,1.376" fill="#fff"/>
        <path id="Tracé_17031" data-name="Tracé 17031" d="M14.179,16.374H10.394c-.055,0-.11,0-.164,0-.31-.014-.427-.215-.276-.486q.711-1.279,1.427-2.555c.038-.069.071-.14.133-.262-.222,0-.395,0-.569,0a.343.343,0,0,1-.364-.169c-.073-.148,0-.262.083-.376q.917-1.257,1.832-2.517c.042-.058.077-.121.153-.244a2.58,2.58,0,0,1-.449-.006.615.615,0,0,1-.329-.15c-.1-.117-.025-.254.056-.372q.861-1.26,1.718-2.522c.044-.064.075-.136.136-.248-.173,0-.3.006-.426,0-.227-.013-.319-.183-.186-.366Q14,4.957,14.847,3.825a.263.263,0,0,1,.462.009q.839,1.124,1.666,2.258c.141.193.05.361-.192.374-.061,0-.123,0-.185,0s-.121.005-.219.01A2.29,2.29,0,0,0,16.5,6.7q.828,1.219,1.66,2.438c.039.056.08.111.113.17a.284.284,0,0,1-.243.451c-.154.009-.308,0-.519,0,.07.119.1.188.149.249q.9,1.234,1.8,2.468c.092.127.2.248.115.425s-.247.168-.407.166-.31,0-.51,0c.049.108.075.181.112.247q.7,1.26,1.408,2.519c.19.342.076.537-.316.537q-1.8,0-3.607,0h-.262c0,.092-.01.164-.01.237,0,.491,0,.983,0,1.475,0,.309-.129.431-.44.434-.293,0-.587,0-.881,0-.355,0-.47-.113-.471-.462,0-.478,0-.956,0-1.434v-.25" fill="#fff"/>
      </g>
    </g>
  </g>
</svg>
