<svg xmlns="http://www.w3.org/2000/svg" width="57.583" height="57.583" viewBox="0 0 57.583 57.583">
  <g id="Groupe_13624" data-name="Groupe 13624" transform="translate(-419.208 -648)">
    <g id="Groupe_13623" data-name="Groupe 13623" transform="translate(-619.728 351.331)">
      <rect id="Rectangle_2730" data-name="Rectangle 2730" width="57.583" height="57.583" rx="8.032" transform="translate(1038.936 296.669)" fill="#35342f"/>
      <g id="Groupe_13622" data-name="Groupe 13622">
        <path id="Tracé_12314" data-name="Tracé 12314" d="M1061.617,319.483a8.456,8.456,0,0,1,12.054,0,8.314,8.314,0,0,1,2.3,4.051h5.207a13.668,13.668,0,0,0-27.046,0h5.205A8.217,8.217,0,0,1,1061.617,319.483Z" fill="#fff"/>
        <path id="Tracé_12315" data-name="Tracé 12315" d="M1073.671,331.512a8.562,8.562,0,0,1-14.222-3.6h-5.256a13.254,13.254,0,0,0,3.647,7.154,12.543,12.543,0,0,0,9.378,4.026,13.316,13.316,0,0,0,4.7-.841,12.748,12.748,0,0,0,4.279-2.735v3.151h5.127V327.91h-5.466A8.391,8.391,0,0,1,1073.671,331.512Z" fill="#fff"/>
      </g>
    </g>
  </g>
</svg>
