<svg xmlns="http://www.w3.org/2000/svg" xmlns:xlink="http://www.w3.org/1999/xlink" width="68" height="68" viewBox="0 0 68 68">
  <defs>
    <filter id="Ellipse_601" x="0" y="0" width="68" height="68" filterUnits="userSpaceOnUse">
      <feOffset dy="3" input="SourceAlpha"/>
      <feGaussianBlur stdDeviation="3" result="blur"/>
      <feFlood flood-opacity="0.161"/>
      <feComposite operator="in" in2="blur"/>
      <feComposite in="SourceGraphic"/>
    </filter>
    <clipPath id="clip-path">
      <rect id="Rectangle_4051" data-name="Rectangle 4051" width="22.055" height="20.96" fill="none"/>
    </clipPath>
  </defs>
  <g id="Group_16807" data-name="Group 16807" transform="translate(-224.5 -422.11)">
    <g transform="matrix(1, 0, 0, 1, 224.5, 422.11)" filter="url(#Ellipse_601)">
      <g id="Ellipse_601-2" data-name="Ellipse 601" transform="translate(9 6)" fill="#eb6016" stroke="#fff" stroke-width="2">
        <circle cx="25" cy="25" r="25" stroke="none"/>
        <circle cx="25" cy="25" r="24" fill="none"/>
      </g>
    </g>
    <g id="Group_16806" data-name="Group 16806" transform="translate(247.473 442.627)">
      <g id="Group_16805" data-name="Group 16805">
        <g id="Group_16804" data-name="Group 16804">
          <g id="Group_16803" data-name="Group 16803" clip-path="url(#clip-path)">
            <path id="Path_16965" data-name="Path 16965" d="M21.686,9.313,11.789.3a1.131,1.131,0,0,0-1.525,0L.37,9.313a1.131,1.131,0,0,0,.762,1.965H2.713V20.31a.655.655,0,0,0,.648.65H8.786a.649.649,0,0,0,.648-.65V14.826h3.188V20.31a.655.655,0,0,0,.648.65H18.7a.649.649,0,0,0,.648-.65V11.28h1.582a1.13,1.13,0,0,0,.762-1.965" transform="translate(-0.001 -0.001)" fill="#fff"/>
            <path id="Path_16966" data-name="Path 16966" d="M12.584.718H8.227l5,4.551v-3.9a.649.649,0,0,0-.647-.65Z" transform="translate(6.59 0.575)" fill="#fff"/>
          </g>
        </g>
      </g>
    </g>
  </g>
</svg>
