<svg xmlns="http://www.w3.org/2000/svg" xmlns:xlink="http://www.w3.org/1999/xlink" width="63" height="63" viewBox="0 0 63 63">
  <defs>
    <filter id="Tracé_17006" x="0" y="0" width="63" height="63" filterUnits="userSpaceOnUse">
      <feOffset dy="3" input="SourceAlpha"/>
      <feGaussianBlur stdDeviation="3" result="blur"/>
      <feFlood flood-opacity="0.161"/>
      <feComposite operator="in" in2="blur"/>
      <feComposite in="SourceGraphic"/>
    </filter>
  </defs>
  <g id="Groupe_16848" data-name="Groupe 16848" transform="translate(-819 -8)">
    <g id="Groupe_16847" data-name="Groupe 16847">
      <g id="Groupe_16844" data-name="Groupe 16844">
        <g id="Groupe_16843" data-name="Groupe 16843">
          <g id="Groupe_16840" data-name="Groupe 16840">
            <g id="Groupe_16837" data-name="Groupe 16837">
              <g id="Groupe_16836" data-name="Groupe 16836" transform="translate(-44 -570)">
                <g id="Salle_de_sport" data-name="Salle de sport">
                  <g transform="matrix(1, 0, 0, 1, 863, 578)" filter="url(#Tracé_17006)">
                    <g id="Tracé_17006-2" data-name="Tracé 17006" transform="translate(9 6)" fill="#864ba2">
                      <path d="M 22.5 44 C 19.59708023071289 44 16.78152084350586 43.43167877197266 14.13154029846191 42.31082916259766 C 11.57145023345947 41.22800827026367 9.272049903869629 39.67763900756836 7.297200202941895 37.70280075073242 C 5.322360038757324 35.72795104980469 3.771990060806274 33.42855072021484 2.689169883728027 30.86845970153809 C 1.568320035934448 28.21847915649414 1 25.40291976928711 1 22.5 C 1 19.59708023071289 1.568320035934448 16.78152084350586 2.689169883728027 14.13154029846191 C 3.771990060806274 11.57145023345947 5.322360038757324 9.272049903869629 7.297200202941895 7.297200202941895 C 9.272049903869629 5.322360038757324 11.57145023345947 3.771990060806274 14.13154029846191 2.689169883728027 C 16.78152084350586 1.568320035934448 19.59708023071289 1 22.5 1 C 25.40291976928711 1 28.21847915649414 1.568320035934448 30.86845970153809 2.689169883728027 C 33.42855072021484 3.771990060806274 35.72795104980469 5.322360038757324 37.70280075073242 7.297200202941895 C 39.67763900756836 9.272049903869629 41.22800827026367 11.57145023345947 42.31082916259766 14.13154029846191 C 43.43167877197266 16.78152084350586 44 19.59708023071289 44 22.5 C 44 25.40291976928711 43.43167877197266 28.21847915649414 42.31082916259766 30.86845970153809 C 41.22800827026367 33.42855072021484 39.67763900756836 35.72795104980469 37.70280075073242 37.70280075073242 C 35.72795104980469 39.67763900756836 33.42855072021484 41.22800827026367 30.86845970153809 42.31082916259766 C 28.21847915649414 43.43167877197266 25.40291976928711 44 22.5 44 Z" stroke="none"/>
                      <path d="M 22.5 2 C 19.73163986206055 2 17.04714012145996 2.541740417480469 14.52108955383301 3.61016845703125 C 12.0802001953125 4.642578125 9.887641906738281 6.120979309082031 8.004310607910156 8.004310607910156 C 6.120979309082031 9.887641906738281 4.642578125 12.0802001953125 3.61016845703125 14.52108955383301 C 2.541740417480469 17.04714012145996 2 19.73163986206055 2 22.5 C 2 25.26836013793945 2.541740417480469 27.95285987854004 3.61016845703125 30.47891044616699 C 4.642578125 32.9197998046875 6.120979309082031 35.11235809326172 8.004310607910156 36.99568939208984 C 9.887641906738281 38.87902069091797 12.0802001953125 40.357421875 14.52108955383301 41.38983154296875 C 17.04714012145996 42.45825958251953 19.73163986206055 43 22.5 43 C 25.26836013793945 43 27.95285987854004 42.45825958251953 30.47891044616699 41.38983154296875 C 32.9197998046875 40.357421875 35.11235809326172 38.87902069091797 36.99568939208984 36.99568939208984 C 38.87902069091797 35.11235809326172 40.357421875 32.9197998046875 41.38983154296875 30.47891044616699 C 42.45825958251953 27.95285987854004 43 25.26836013793945 43 22.5 C 43 19.73163986206055 42.45825958251953 17.04714012145996 41.38983154296875 14.52108955383301 C 40.357421875 12.0802001953125 38.87902069091797 9.887641906738281 36.99568939208984 8.004310607910156 C 35.11235809326172 6.120979309082031 32.9197998046875 4.642578125 30.47891044616699 3.61016845703125 C 27.95285987854004 2.541740417480469 25.26836013793945 2 22.5 2 M 22.5 0 C 34.92641067504883 0 45 10.07358932495117 45 22.5 C 45 34.92641067504883 34.92641067504883 45 22.5 45 C 10.07358932495117 45 0 34.92641067504883 0 22.5 C 0 10.07358932495117 10.07358932495117 0 22.5 0 Z" stroke="none" fill="#fff"/>
                    </g>
                  </g>
                </g>
              </g>
            </g>
          </g>
        </g>
      </g>
    </g>
    <path id="Tracé_17032" data-name="Tracé 17032" d="M4.926,0V4.925H0v5.747H4.926V15.6h5.747V10.672H15.6V4.925H10.673V0Z" transform="translate(843 28)" fill="#fff"/>
  </g>
</svg>
