<?xml version="1.0" encoding="UTF-8"?><svg id="Calque_2" xmlns="http://www.w3.org/2000/svg" viewBox="0 0 44.61 44.53"><defs><style>.cls-1{fill:#fff;}.cls-2{fill:#864ba2;stroke:#fff;stroke-miterlimit:10;}</style></defs><g id="Calque_1-2"><g><path class="cls-2" d="M22.3,44.03c-2.94,0-5.8-.58-8.49-1.71-2.6-1.1-4.93-2.67-6.93-4.67-2-2-3.57-4.33-4.67-6.92-1.14-2.68-1.71-5.53-1.71-8.47s.58-5.79,1.71-8.47c1.1-2.59,2.67-4.92,4.67-6.92,2-2,4.33-3.57,6.93-4.67,2.69-1.13,5.54-1.71,8.49-1.71s5.8,.58,8.49,1.71c2.6,1.1,4.93,2.67,6.93,4.67,2,2,3.57,4.33,4.67,6.92,1.14,2.68,1.71,5.53,1.71,8.47s-.58,5.79-1.71,8.47c-1.1,2.59-2.67,4.92-4.67,6.92-2,2-4.33,3.57-6.93,4.67-2.69,1.13-5.54,1.71-8.49,1.71Z"/><polygon class="cls-1" points="19.43 13.39 19.43 18.31 14.5 18.31 14.5 24.06 19.43 24.06 19.43 28.99 25.18 28.99 25.18 24.06 30.1 24.06 30.1 18.31 25.18 18.31 25.18 13.39 19.43 13.39"/></g></g></svg>