<svg xmlns="http://www.w3.org/2000/svg" xmlns:xlink="http://www.w3.org/1999/xlink" width="61.062" height="56.936" viewBox="0 0 61.062 56.936">
  <defs>
    <clipPath id="clip-path">
      <rect id="Rectangle_4055" data-name="Rectangle 4055" width="61.062" height="56.936" fill="none"/>
    </clipPath>
  </defs>
  <g id="Groupe_16858" data-name="Groupe 16858" transform="translate(0 -0.001)">
    <g id="Groupe_16857" data-name="Groupe 16857" transform="translate(0 0.001)" clip-path="url(#clip-path)">
      <path id="Tracé_17044" data-name="Tracé 17044" d="M24.721,40.255q-9.786,0-19.57.011c-.481,0-.537-.112-.449-.539.339-1.681.634-3.369.948-5.054.265-1.42.537-2.841.8-4.261.3-1.627.58-3.259.879-4.886.2-1.05.458-2.092.609-3.149.2-1.438.519-2.859.764-4.288.249-1.45.557-2.888.809-4.335.054-.3.171-.411.47-.382a2.522,2.522,0,0,0,.261,0q19.435,0,38.867-.007c.454,0,.674-.011.551.571-.373,1.733-.658,3.486-.971,5.23-.391,2.173-.766,4.349-1.162,6.522-.234,1.283-.5,2.562-.739,3.845-.249,1.353-.481,2.71-.728,4.066-.243,1.33-.5,2.656-.746,3.985-.135.721-.283,1.443-.4,2.167-.058.362-.184.517-.62.515q-9.786-.024-19.57-.011Z" transform="translate(5.821 16.669)" fill="#ffd200"/>
      <path id="Tracé_17045" data-name="Tracé 17045" d="M28.266,13.437q-9.783,0-19.564,0c-.31,0-.557.043-.465-.429.418-2.115.791-4.236,1.191-6.356.326-1.715.667-3.427.993-5.142.065-.344.1-.69.144-1.036s.2-.476.6-.476c4.2.018,8.405.013,12.608.013q13.292,0,26.582,0c.391,0,.521.016.425.485-.371,1.814-.65,3.645-.987,5.466-.326,1.76-.7,3.515-1.011,5.279-.1.584-.229,1.166-.321,1.751-.056.353-.2.452-.578.452q-9.81-.02-19.618-.009Z" transform="translate(10.25 -0.002)" fill="#ffd200"/>
      <path id="Tracé_17046" data-name="Tracé 17046" d="M18.711,12.461c.227-1.245.461-2.472.67-3.7.045-.263.169-.317.418-.315q2.329.01,4.659,0c.263,0,.344.027.281.335-.407,2.074-.78,4.155-1.16,6.234-.153.836-.312,1.67-.427,2.508-.049.348-.2.438-.539.434q-2.225-.02-4.45,0a.575.575,0,0,1-.641-.423c-.458-1.2-.951-2.389-1.524-3.591q-.2,1.052-.4,2.1c-.1.537-.231,1.072-.3,1.614-.034.258-.155.292-.373.292-1.465,0-2.931-.007-4.4,0-.348,0-.362-.1-.3-.414.555-2.926,1.083-5.859,1.609-8.79.04-.227.119-.308.362-.306,1.5.009,3,.016,4.5,0,.315,0,.369.173.447.371.44,1.119.876,2.238,1.324,3.355.038.094.031.24.238.294" transform="translate(12.726 10.526)" fill="#545454"/>
      <path id="Tracé_17047" data-name="Tracé 17047" d="M4.225,17.974c-1.274,0-2.549-.007-3.823,0-.321,0-.456-.025-.382-.4.391-2.014.744-4.032,1.11-6.048.162-.885.335-1.766.474-2.652.052-.326.171-.438.528-.434,1.519.022,3.039.027,4.558,0,.452-.007.51.139.44.512-.4,2.095-.773,4.194-1.182,6.286-.063.324.027.371.321.364.751-.011,1.5.013,2.252-.011.36-.011.465.1.4.432-.112.537-.225,1.074-.3,1.618-.047.326-.249.339-.517.337-1.29-.007-2.582,0-3.875,0" transform="translate(0 10.523)" fill="#545454"/>
      <path id="Tracé_17048" data-name="Tracé 17048" d="M8.525,17.97c-.627,0-1.256-.007-1.883,0-.274,0-.423-.02-.335-.36A13.886,13.886,0,0,0,6.642,15.9c.034-.27.13-.348.387-.324.971.092,1.227.139,1.445-1.175.308-1.87.688-3.731,1.02-5.6.047-.265.128-.366.42-.364,1.587.011,3.176,0,4.762.007.153,0,.387-.065.321.231-.474,2.227-.715,4.5-1.326,6.7a3.282,3.282,0,0,1-3.524,2.591c-.542.007-1.081,0-1.623,0" transform="translate(7.836 10.527)" fill="#545454"/>
      <path id="Tracé_17049" data-name="Tracé 17049" d="M4.031,15.022q.58-3.165,1.155-6.338c.036-.191.133-.24.319-.24,1.674,0,3.351.007,5.027,0,.281,0,.306.1.261.33q-.57,2.97-1.11,5.942c-.043.227-.072.366-.362.364-1.728-.011-3.457-.009-5.185-.013a.345.345,0,0,1-.106-.043" transform="translate(5.028 10.528)" fill="#545454"/>
      <path id="Tracé_17050" data-name="Tracé 17050" d="M13.97,9.1c-1.865,0-3.731-.016-5.6.011-.472,0-.53-.178-.452-.539a8.119,8.119,0,0,0,.258-1.317c.025-.51.317-.58.737-.578q2.956,0,5.911,0c1.78,0,3.558.013,5.335,0,.371,0,.44.07.351.418a14.113,14.113,0,0,0-.283,1.566c-.045.335-.178.454-.56.449-1.9-.025-3.8-.011-5.7-.011" transform="translate(9.846 8.324)" fill="#102664"/>
      <path id="Tracé_17051" data-name="Tracé 17051" d="M17.247,9.1c-1.115,0-2.232-.011-3.346.007-.355,0-.463-.067-.375-.425.128-.517.2-1.045.281-1.573.047-.306.171-.443.535-.438,2.2.018,4.391.013,6.589,0,.342,0,.548.007.42.443a9.456,9.456,0,0,0-.3,1.618c-.034.317-.16.373-.454.371-1.117-.016-2.232-.007-3.349-.007" transform="translate(16.835 8.32)" fill="#102664"/>
      <path id="Tracé_17052" data-name="Tracé 17052" d="M17.569,6.721a33.673,33.673,0,0,1,3.564,0c.641-.063.641-.063.562.641-.076.49-.157.978-.229,1.468-.027.175-.106.276-.3.272-1.387-.027-2.776.067-4.162-.049a.271.271,0,0,1,.27-.04c-.216-.085-.216-.085-.211-.369a7.8,7.8,0,0,1,.306-1.713c.054-.081.178-.1.2-.207" transform="translate(21.21 8.321)" fill="#102664"/>
      <path id="Tracé_17053" data-name="Tracé 17053" d="M6.046,9.046H5.68c-1.034,0-1.034,0-.859-.957.065-.36.148-.715.2-1.074.031-.218.11-.326.362-.326a16.482,16.482,0,0,1,2.133.04.706.706,0,0,1,.5.236,1.29,1.29,0,0,1,.027,1.42,1,1,0,0,1-1,.663c-.333-.011-.663,0-.993,0" transform="translate(5.905 8.322)" fill="#545454"/>
      <path id="Tracé_17054" data-name="Tracé 17054" d="M19.855,6.72a10.547,10.547,0,0,1,1.975,0c.373.061.274.315.243.539a8.924,8.924,0,0,1-.317,1.7c-.083.1-.234.018-.321.106-.688.092-1.378.016-2.065.043-.175.007-.263-.052-.225-.231q.206-.968.407-1.935a.38.38,0,0,1,.3-.216" transform="translate(23.871 8.321)" fill="#102664"/>
      <path id="Tracé_17055" data-name="Tracé 17055" d="M7.625,8.442a3.23,3.23,0,0,1,.418,0c.128.018.38-.09.335.162-.029.173.016.458-.351.443-.488-.022-.975-.009-1.463,0-.211,0-.31-.022-.254-.281.137-.616.227-1.243.335-1.863.038-.229.216-.229.4-.229.452,0,.9,0,1.357,0,.151,0,.371-.027.3.2-.047.16.036.44-.292.443-.1,0-.209-.007-.312,0s-.256-.049-.294.124.074.191.211.193.209.054.157.184-.049.283-.245.276c-.234-.009-.3.117-.3.342" transform="translate(7.853 8.321)" fill="#565456"/>
      <path id="Tracé_17056" data-name="Tracé 17056" d="M20.562,8.572c.09-.524.178-1.045.27-1.569.052-.283.683-.425,1.317-.3.333.067.369.236.288.539-.124.463-.173.946-.252,1.42-.052.312-.178.519-.569.465a5.572,5.572,0,0,1-1.077-.058c.083-.162,0-.333.022-.5" transform="translate(25.622 8.302)" fill="#0f2665"/>
      <path id="Tracé_17057" data-name="Tracé 17057" d="M21.473,8.941A12.7,12.7,0,0,1,21.9,6.833c.274-.265.589-.137.894-.085a7.529,7.529,0,0,1-.326,2.189c-.07.348-.456.13-.706.128-.108-.018-.222-.018-.29-.124" transform="translate(26.786 8.319)" fill="#0f2665"/>
      <path id="Tracé_17058" data-name="Tracé 17058" d="M23.16,6.946c-.112.62-.238,1.238-.333,1.861-.045.3-.229.33-.474.292-.328-.052-.121-.258-.1-.384.094-.593.2-1.182.319-1.771.049-.245.254-.29.481-.263.191.022.137.153.108.265" transform="translate(27.654 8.323)" fill="#0e2668"/>
      <path id="Tracé_17059" data-name="Tracé 17059" d="M22.835,8.611c.088-.539.171-1.081.267-1.62.027-.157.049-.342.308-.315.3.031.182.247.162.38-.094.591-.211,1.175-.319,1.764-.052.281-.2.373-.47.227.083-.139-.029-.3.052-.436" transform="translate(28.42 8.323)" fill="#0e2668"/>
      <path id="Tracé_17060" data-name="Tracé 17060" d="M24.263,7.206a5.661,5.661,0,0,1-.16,1.133c-.016.106-.052.211-.193.164-.1-.034-.072-.137-.058-.214.07-.393.144-.784.216-1.18.11-.049.139.049.2.1" transform="translate(29.734 8.849)" fill="#142256"/>
      <path id="Tracé_17061" data-name="Tracé 17061" d="M23.338,7.96a1.1,1.1,0,0,1,.2-.706c.029-.04.058-.043.092,0,.164.33-.027.627-.094.935-.13-.025-.153-.133-.2-.225" transform="translate(29.11 9.007)" fill="#102664"/>
      <path id="Tracé_17062" data-name="Tracé 17062" d="M25.267,7.6c-.047.243-.094.483-.139.726a1.363,1.363,0,0,1,.036-1.056c.124.085.022.234.1.33" transform="translate(31.227 9.062)" fill="#1e2b76"/>
      <path id="Tracé_17063" data-name="Tracé 17063" d="M24.812,7c-.1.209-.022.479-.324.712.1-.387.04-.715.231-1,.267.029.115.18.092.292" transform="translate(30.547 8.365)" fill="#102664"/>
      <path id="Tracé_17064" data-name="Tracé 17064" d="M23.51,7c.067-.058-.144-.3.148-.3.137,0,.214.072.112.18s.011.373-.229.375c-.115,0-.148-.121-.031-.258" transform="translate(29.236 8.356)" fill="#151f47"/>
      <path id="Tracé_17065" data-name="Tracé 17065" d="M26.021,7.305c-.09.227-.007.5-.258.818A2.605,2.605,0,0,1,25.936,7.1c.088.047.043.144.085.209" transform="translate(32.137 8.849)" fill="#2e387f"/>
      <path id="Tracé_17066" data-name="Tracé 17066" d="M25.85,7.331l.115-.65a.907.907,0,0,1,0,.782c-.07-.02-.076-.088-.11-.133" transform="translate(32.246 8.332)" fill="#1e2b73"/>
      <path id="Tracé_17067" data-name="Tracé 17067" d="M19.4,7.355c.022-.382-.011-.719-.562-.638.76-.1.78-.074.562.638" transform="translate(23.503 8.325)" fill="#15204e"/>
      <path id="Tracé_17068" data-name="Tracé 17068" d="M23.578,7.547l-.092,0c-.218-.207-.054-.351.1-.566a.455.455,0,0,1-.007.562" transform="translate(29.165 8.711)" fill="#102664"/>
      <path id="Tracé_17069" data-name="Tracé 17069" d="M24,7.15c-.067-.2.034-.335.225-.485.119.27-.092.47-.049.681-.193.045-.1-.142-.175-.2" transform="translate(29.91 8.312)" fill="#102664"/>
      <path id="Tracé_17070" data-name="Tracé 17070" d="M24.6,7.482c0,.207.115.44-.182.6.011-.225-.1-.429.085-.614.036-.043.07-.04.1.009" transform="translate(30.429 9.281)" fill="#102664"/>
      <path id="Tracé_17071" data-name="Tracé 17071" d="M25.169,7.2a.456.456,0,0,1,.175-.508,1.169,1.169,0,0,1-.088.715c-.09-.045-.043-.144-.088-.207" transform="translate(31.367 8.351)" fill="#102664"/>
      <path id="Tracé_17072" data-name="Tracé 17072" d="M24.539,7.787c-.034,0-.065,0-.1-.009.056-.189-.106-.438.171-.58a.53.53,0,0,1-.074.589" transform="translate(30.489 8.976)" fill="#102664"/>
      <path id="Tracé_17073" data-name="Tracé 17073" d="M22.557,6.76c-.3.031-.609-.067-.894.085.27-.308.587-.155.894-.085" transform="translate(27.023 8.306)" fill="#102469"/>
      <path id="Tracé_17074" data-name="Tracé 17074" d="M24.046,6.881l.175.2-.088.4c-.065-.031-.128-.065-.193-.1.034-.166.07-.333.106-.5" transform="translate(29.863 8.581)" fill="#102664"/>
      <path id="Tracé_17075" data-name="Tracé 17075" d="M17.084,7.548c-.038.249.142.3.351.339-.133.115-.279.047-.409.067a.352.352,0,0,1,.058-.407" transform="translate(21.187 9.413)" fill="#15204d"/>
      <path id="Tracé_17076" data-name="Tracé 17076" d="M20.576,7.236c-.025-.2.013-.432-.24-.539.676-.065.231.33.24.539" transform="translate(25.367 8.342)" fill="#15204e"/>
      <path id="Tracé_17077" data-name="Tracé 17077" d="M25.194,7.8c-.119-.085-.072-.22-.1-.33.011-.119.022-.238.031-.355.094-.013.16-.007.09.106-.007.193-.011.387-.018.58" transform="translate(31.299 8.863)" fill="#102664"/>
      <path id="Tracé_17078" data-name="Tracé 17078" d="M25.2,7.447c-.029-.036-.058-.072-.088-.106-.07-.166.092-.274.112-.418.029.067.058.137.088.207-.013.112.043.249-.112.317" transform="translate(31.308 8.633)" fill="#151f47"/>
      <path id="Tracé_17079" data-name="Tracé 17079" d="M23.373,7.551l.2.225-.036.164c-.267.106-.249-.038-.2-.209l.034-.18" transform="translate(29.075 9.417)" fill="#102664"/>
      <path id="Tracé_17080" data-name="Tracé 17080" d="M25.843,7.6a.2.2,0,0,1-.009.328c-.013.013-.115-.02-.117-.038-.016-.11-.036-.234.126-.29" transform="translate(32.066 9.474)" fill="#404a96"/>
      <path id="Tracé_17081" data-name="Tracé 17081" d="M20.583,7.509c0,.166.234.342-.022.5a.678.678,0,0,1,.022-.5" transform="translate(25.601 9.364)" fill="#15204e"/>
      <path id="Tracé_17082" data-name="Tracé 17082" d="M19.629,6.712c-.056.128-.2.148-.3.216-.043-.258.094-.283.3-.216" transform="translate(24.097 8.33)" fill="#151f47"/>
      <path id="Tracé_17083" data-name="Tracé 17083" d="M21.473,7.681c.11.013.234-.007.29.124-.121.009-.3.155-.29-.124" transform="translate(26.785 9.579)" fill="#151f47"/>
      <path id="Tracé_17084" data-name="Tracé 17084" d="M25.862,6.97c.036.045.074.088.11.133l-.047.36-.085-.209c.007-.094.016-.189.022-.283" transform="translate(32.233 8.692)" fill="#182770"/>
      <path id="Tracé_17085" data-name="Tracé 17085" d="M24.683,7.045c-.031-.1.018-.22-.092-.292.025-.079.119-.1.146-.056a.286.286,0,0,1-.054.348" transform="translate(30.675 8.321)" fill="#1b2973"/>
      <path id="Tracé_17086" data-name="Tracé 17086" d="M22.856,7.536c-.063.139.2.315-.052.436a.453.453,0,0,1,.052-.436" transform="translate(28.399 9.398)" fill="#152151"/>
      <path id="Tracé_17087" data-name="Tracé 17087" d="M23.37,7.631c.022.108.056.2.2.209a.143.143,0,0,1-.238.034c-.1-.083-.009-.166.04-.243" transform="translate(29.044 9.517)" fill="#10246a"/>
      <path id="Tracé_17088" data-name="Tracé 17088" d="M20.159,7.8c.067-.144.2-.108.321-.106-.04.22-.191.133-.321.106" transform="translate(25.147 9.585)" fill="#151f47"/>
      <path id="Tracé_17089" data-name="Tracé 17089" d="M17.371,6.7c.1.22-.135.139-.2.207-.018-.144-.016-.272.2-.207" transform="translate(21.408 8.338)" fill="#151f47"/>
      <path id="Tracé_17090" data-name="Tracé 17090" d="M5.344,7.728c.173-.193-.166-.694.4-.757.3-.034.44.144.432.423a.619.619,0,0,1-.609.67c-.227.022-.261-.106-.218-.335" transform="translate(6.646 8.687)" fill="#fafafa"/>
    </g>
  </g>
</svg>
