<svg xmlns="http://www.w3.org/2000/svg" width="45" height="45" viewBox="0 0 45 45">
  <g id="Manege_2" data-name="Manege 2" transform="translate(-1175 -643)">
    <path id="Path_17007" data-name="Path 17007" d="M22.5,0A22.5,22.5,0,1,1,0,22.5,22.5,22.5,0,0,1,22.5,0Z" transform="translate(1175 643)" fill="#864ba2"/>
    <g id="Group_16826" data-name="Group 16826" transform="translate(258.037 -7.355)">
      <g id="Group_16824" data-name="Group 16824" transform="translate(932.2 665.5)">
        <path id="Path_16995" data-name="Path 16995" d="M86.026,40.651h7.008c.25,0,.25,0,.252.244v1.149c0,.114-.035.171-.155.16a.208.208,0,0,0-.044,0c-.407,0-.407,0-.407.4v4.487c0,.206,0,.206.209.206.392,0,.4,0,.392.4v.392a.765.765,0,0,1-1.53,0v-.649c0-.106.043-.146.144-.142s.222,0,.332,0,.135-.04.13-.136c0-.116,0-.231,0-.347V42.4c0-.2,0-.2-.2-.2-.769,0-1.54,0-2.309,0-.157,0-.2.049-.193.2q.009,1.448,0,2.9c0,.144.041.191.187.188.421,0,.421,0,.421.419v.378a.765.765,0,0,1-1.53,0c0-.222,0-.443,0-.665,0-.1.036-.138.131-.136h.347c.089,0,.127-.033.125-.125V42.319c0-.093-.041-.127-.13-.122H82.927c-.215,0-.215,0-.215.215v2.869c0,.149.035.2.193.2.415-.009.415,0,.415.408v.377a.765.765,0,0,1-1.53.006c0-.21.006-.423,0-.633,0-.131.049-.174.169-.163h.06c.377,0,.377,0,.377-.37,0-.907,0-1.814,0-2.719,0-.155-.044-.2-.2-.2-.775.008-1.551.006-2.326,0-.136,0-.182.035-.182.177q.007,2.372,0,4.743c0,.142.046.188.182.177.093-.008.19,0,.286,0s.141.044.139.146c0,.226,0,.454,0,.679a.772.772,0,0,1-1.541,0c0-.228,0-.454,0-.681,0-.1.041-.146.144-.142s.222,0,.332,0,.136-.038.13-.135,0-.21,0-.317V42.4c0-.2,0-.2-.195-.2-.408,0-.408,0-.408-.405v-.937c0-.209,0-.21.21-.21h7.054" transform="translate(-78.76 -36.858)" fill="#fff"/>
        <path id="Path_16996" data-name="Path 16996" d="M84.379,41.785H81.707c-.047,0-.114.024-.141-.024s.035-.1.065-.138q1.327-1.645,2.652-3.289c.089-.112.136-.108.223,0q1.327,1.655,2.66,3.3c.029.033.079.065.062.114s-.089.033-.135.035Z" transform="translate(-77.13 -38.253)" fill="#fff"/>
        <path id="Path_16997" data-name="Path 16997" d="M85.022,48.009H80.809a1.456,1.456,0,0,1-.166,0,.163.163,0,0,1-.16-.163v0a.158.158,0,0,1,.149-.166h.013c.136-.008.272,0,.408-.006.166,0,.332,0,.5,0,.106,0,.141-.04.138-.142,0-.207,0-.413,0-.62,0-.1.036-.15.141-.144h6.277c.247,0,.247,0,.247.248,0,.166.006.332,0,.5-.008.131.046.165.168.161.245-.006.492,0,.739,0,.214,0,.3.047.3.169s-.085.174-.294.174H85.02" transform="translate(-77.756 -33.299)" fill="#fff"/>
        <path id="Path_16998" data-name="Path 16998" d="M83.735,38.387l6.172,3.276a.183.183,0,0,1-.166.044q-1.6,0-3.2,0a.332.332,0,0,1-.291-.142q-1.206-1.5-2.417-3a.32.32,0,0,1-.1-.185" transform="translate(-75.861 -38.175)" fill="#fff"/>
        <path id="Path_16999" data-name="Path 16999" d="M79.068,41.657l6.153-3.266a.175.175,0,0,1-.065.152q-1.232,1.529-2.464,3.054a.257.257,0,0,1-.217.109H79.2a.138.138,0,0,1-.131-.047" transform="translate(-78.58 -38.172)" fill="#fff"/>
        <path id="Path_17000" data-name="Path 17000" d="M85.021,46.1c0,.554,0,1.106,0,1.66,0,.146-.046.19-.19.19q-1.033-.009-2.067,0c-.147,0-.191-.051-.187-.2.009-.241,0-.483,0-.725a.28.28,0,0,1,.078-.2q1.106-1.225,2.211-2.455a.374.374,0,0,1,.043-.044c.025-.021.044-.065.084-.044s.024.065.024.095v1.72" transform="translate(-76.536 -34.745)" fill="#fff"/>
        <path id="Path_17001" data-name="Path 17001" d="M82.631,46a.184.184,0,0,1-.049-.161V44.751a.3.3,0,0,1,.078-.22q1.111-1.227,2.214-2.456c.033-.035.065-.1.112-.087.065.021.033.1.033.147v1.057a.308.308,0,0,1-.079.218q-1.111,1.227-2.214,2.456c-.035.04-.065.087-.1.131" transform="translate(-76.535 -36.078)" fill="#fff"/>
        <path id="Path_17002" data-name="Path 17002" d="M82.606,47.116c-.038-.033-.024-.076-.025-.114V45.885a.285.285,0,0,1,.076-.2q1.111-1.227,2.214-2.456a.571.571,0,0,1,.052-.055c.021-.019.041-.054.074-.032a.094.094,0,0,1,.021.065V44.41a.209.209,0,0,1-.076.142L82.729,47.01c-.035.038-.065.092-.122.1" transform="translate(-76.534 -35.411)" fill="#fff"/>
        <path id="Path_17003" data-name="Path 17003" d="M82.611,44.281a.223.223,0,0,1-.028-.158q0-1.063,0-2.127c0-.147.035-.2.193-.2.633.008,1.266,0,1.9,0,.043,0,.1-.019.123.03s-.024.073-.051.1q-1.033,1.147-2.07,2.295a.515.515,0,0,1-.065.057" transform="translate(-76.535 -36.19)" fill="#fff"/>
      </g>
    </g>
  </g>
</svg>
