<svg xmlns="http://www.w3.org/2000/svg" xmlns:xlink="http://www.w3.org/1999/xlink" width="63" height="63" viewBox="0 0 63 63">
  <defs>
    <filter id="Tracé_17004" x="0" y="0" width="63" height="63" filterUnits="userSpaceOnUse">
      <feOffset dy="3" input="SourceAlpha"/>
      <feGaussianBlur stdDeviation="3" result="blur"/>
      <feFlood flood-opacity="0.161"/>
      <feComposite operator="in" in2="blur"/>
      <feComposite in="SourceGraphic"/>
    </filter>
    <clipPath id="clip-path">
      <rect id="Rectangle_4052" data-name="Rectangle 4052" width="19.955" height="17.44" transform="translate(0 0.001)" fill="none"/>
    </clipPath>
  </defs>
  <g id="Groupe_16835" data-name="Groupe 16835" transform="translate(-761 -9)">
    <g id="Chateau" transform="translate(-40 -628)">
      <g transform="matrix(1, 0, 0, 1, 801, 637)" filter="url(#Tracé_17004)">
        <g id="Tracé_17004-2" data-name="Tracé 17004" transform="translate(9 6)" fill="#864ba2">
          <path d="M 22.5 44 C 19.59708023071289 44 16.78152084350586 43.43167877197266 14.13154029846191 42.31082916259766 C 11.57145023345947 41.22800827026367 9.272049903869629 39.67763900756836 7.297200202941895 37.70280075073242 C 5.322360038757324 35.72795104980469 3.771990060806274 33.42855072021484 2.689169883728027 30.86845970153809 C 1.568320035934448 28.21847915649414 1 25.40291976928711 1 22.5 C 1 19.59708023071289 1.568320035934448 16.78152084350586 2.689169883728027 14.13154029846191 C 3.771990060806274 11.57145023345947 5.322360038757324 9.272049903869629 7.297200202941895 7.297200202941895 C 9.272049903869629 5.322360038757324 11.57145023345947 3.771990060806274 14.13154029846191 2.689169883728027 C 16.78152084350586 1.568320035934448 19.59708023071289 1 22.5 1 C 25.40291976928711 1 28.21847915649414 1.568320035934448 30.86845970153809 2.689169883728027 C 33.42855072021484 3.771990060806274 35.72795104980469 5.322360038757324 37.70280075073242 7.297200202941895 C 39.67763900756836 9.272049903869629 41.22800827026367 11.57145023345947 42.31082916259766 14.13154029846191 C 43.43167877197266 16.78152084350586 44 19.59708023071289 44 22.5 C 44 25.40291976928711 43.43167877197266 28.21847915649414 42.31082916259766 30.86845970153809 C 41.22800827026367 33.42855072021484 39.67763900756836 35.72795104980469 37.70280075073242 37.70280075073242 C 35.72795104980469 39.67763900756836 33.42855072021484 41.22800827026367 30.86845970153809 42.31082916259766 C 28.21847915649414 43.43167877197266 25.40291976928711 44 22.5 44 Z" stroke="none"/>
          <path d="M 22.5 2 C 19.73163986206055 2 17.04714012145996 2.541740417480469 14.52108955383301 3.61016845703125 C 12.0802001953125 4.642578125 9.887641906738281 6.120979309082031 8.004310607910156 8.004310607910156 C 6.120979309082031 9.887641906738281 4.642578125 12.0802001953125 3.61016845703125 14.52108955383301 C 2.541740417480469 17.04714012145996 2 19.73163986206055 2 22.5 C 2 25.26836013793945 2.541740417480469 27.95285987854004 3.61016845703125 30.47891044616699 C 4.642578125 32.9197998046875 6.120979309082031 35.11235809326172 8.004310607910156 36.99568939208984 C 9.887641906738281 38.87902069091797 12.0802001953125 40.357421875 14.52108955383301 41.38983154296875 C 17.04714012145996 42.45825958251953 19.73163986206055 43 22.5 43 C 25.26836013793945 43 27.95285987854004 42.45825958251953 30.47891044616699 41.38983154296875 C 32.9197998046875 40.357421875 35.11235809326172 38.87902069091797 36.99568939208984 36.99568939208984 C 38.87902069091797 35.11235809326172 40.357421875 32.9197998046875 41.38983154296875 30.47891044616699 C 42.45825958251953 27.95285987854004 43 25.26836013793945 43 22.5 C 43 19.73163986206055 42.45825958251953 17.04714012145996 41.38983154296875 14.52108955383301 C 40.357421875 12.0802001953125 38.87902069091797 9.887641906738281 36.99568939208984 8.004310607910156 C 35.11235809326172 6.120979309082031 32.9197998046875 4.642578125 30.47891044616699 3.61016845703125 C 27.95285987854004 2.541740417480469 25.26836013793945 2 22.5 2 M 22.5 0 C 34.92641067504883 0 45 10.07358932495117 45 22.5 C 45 34.92641067504883 34.92641067504883 45 22.5 45 C 10.07358932495117 45 0 34.92641067504883 0 22.5 C 0 10.07358932495117 10.07358932495117 0 22.5 0 Z" stroke="none" fill="#fff"/>
        </g>
      </g>
    </g>
    <g id="Groupe_16834" data-name="Groupe 16834" transform="translate(783 27.999)">
      <g id="Groupe_16833" data-name="Groupe 16833" clip-path="url(#clip-path)">
        <path id="Tracé_17029" data-name="Tracé 17029" d="M4.569,10.159q0-1.6,0-3.2c0-.318-.116-.433-.435-.434-.474,0-.948,0-1.422,0-.341,0-.454.114-.454.456v6.328c0,.34.118.456.458.456q.69,0,1.381,0c.365,0,.472-.111.474-.48Zm4.241-.015q0,1.586,0,3.175c0,.324.124.449.446.451.474,0,.948,0,1.422,0,.332,0,.456-.124.456-.462V6.98c0-.325-.127-.449-.447-.45-.467,0-.934,0-1.4,0-.363,0-.474.112-.475.479v3.135m6.562-.012q0,1.586,0,3.173c0,.35.116.465.468.467.474,0,.948,0,1.422,0,.3,0,.426-.131.426-.429q0-3.193,0-6.387c0-.3-.125-.423-.431-.424-.46,0-.921,0-1.381,0-.408,0-.5.1-.506.506v3.1m-5.4,5.475h5.805c.768,0,1.533,0,2.3,0,.3,0,.426-.125.428-.426,0-.234,0-.468,0-.7a.34.34,0,0,0-.345-.368,1.717,1.717,0,0,0-.175,0q-8.019,0-16.035,0c-.052,0-.105,0-.155,0a.342.342,0,0,0-.358.375c-.006.2,0,.4,0,.605,0,.424.093.519.512.519H9.976m-.02,1.833H18.72a1.929,1.929,0,0,0,.215,0,.321.321,0,0,0,.318-.329c.009-.272.009-.545,0-.817a.321.321,0,0,0-.326-.34c-.076-.007-.155-.005-.232-.005H1.108c-.306.007-.417.118-.422.429,0,.188,0,.377,0,.565,0,.408.095.5.508.5H9.956" fill="#fff"/>
        <path id="Tracé_17030" data-name="Tracé 17030" d="M9.968,2.093A1.375,1.375,0,0,0,8.616,3.451a1.356,1.356,0,1,0,2.711-.011A1.373,1.373,0,0,0,9.968,2.093M0,5.554a1.856,1.856,0,0,1,.3-.266q4.7-2.605,9.392-5.2a.514.514,0,0,1,.561,0Q14.961,2.7,19.678,5.3c.259.143.345.327.218.51a.593.593,0,0,1-.248.164.487.487,0,0,1-.192.009q-9.486,0-18.97,0A.485.485,0,0,1,0,5.749Z" fill="#fff"/>
        <path id="Tracé_17031" data-name="Tracé 17031" d="M9.956,17.44H1.192c-.413,0-.506-.093-.508-.5,0-.188,0-.377,0-.565,0-.311.116-.422.422-.429H18.695c.077,0,.156,0,.232.005a.321.321,0,0,1,.326.34c.009.272.009.545,0,.817a.321.321,0,0,1-.318.329,1.929,1.929,0,0,1-.215,0Z" fill="#fff"/>
        <path id="Tracé_17032" data-name="Tracé 17032" d="M9.976,15.606H1.949c-.419,0-.512-.093-.512-.519,0-.2,0-.4,0-.6a.341.341,0,0,1,.356-.376c.052-.005.106,0,.157,0H17.987c.057,0,.116,0,.175,0a.343.343,0,0,1,.346.368c.007.235,0,.467,0,.7,0,.3-.125.425-.427.427-.767,0-1.533,0-2.3,0Z" fill="#fff"/>
        <path id="Tracé_17033" data-name="Tracé 17033" d="M15.372,10.132v-3.1c0-.408.1-.506.5-.506.462,0,.921,0,1.383,0,.3,0,.431.121.431.422v6.387c0,.3-.127.427-.427.429-.474,0-.948,0-1.421,0-.352,0-.468-.115-.47-.467,0-1.057,0-2.116,0-3.173" fill="#fff"/>
        <path id="Tracé_17034" data-name="Tracé 17034" d="M8.81,10.144V7.009c0-.367.111-.478.476-.48.467,0,.933,0,1.4,0,.32,0,.445.125.445.451q0,3.163,0,6.328c0,.338-.123.461-.456.461q-.711.006-1.422,0c-.32,0-.445-.127-.445-.45Z" fill="#fff"/>
        <path id="Tracé_17035" data-name="Tracé 17035" d="M4.568,10.158v3.135c0,.367-.109.478-.472.478-.462,0-.921,0-1.383,0-.34,0-.456-.118-.456-.456q0-3.166,0-6.328c0-.344.113-.456.454-.456q.711,0,1.422,0c.317,0,.433.116.435.434,0,1.065,0,2.129,0,3.193" fill="#fff"/>
        <path id="Tracé_17036" data-name="Tracé 17036" d="M9.963,2.777a.673.673,0,1,0,.68.655.669.669,0,0,0-.68-.655m0-.683A1.356,1.356,0,1,1,8.617,3.45a1.369,1.369,0,0,1,1.35-1.356" fill="#fff"/>
      </g>
    </g>
  </g>
</svg>
