<?xml version="1.0" encoding="UTF-8"?><svg id="Calque_2" xmlns="http://www.w3.org/2000/svg" xmlns:xlink="http://www.w3.org/1999/xlink" viewBox="0 0 44.61 44.53"><defs><style>.cls-1{fill:#fff;}.cls-2{fill:#864ba2;stroke:#fff;stroke-miterlimit:10;}.cls-3{clip-path:url(#clippath);}.cls-4{fill:none;}</style><clipPath id="clippath"><rect class="cls-4" x="12.32" y="11.86" width="19.96" height="17.44"/></clipPath></defs><g id="Calque_1-2"><g><path class="cls-2" d="M22.3,44.03c-2.94,0-5.8-.58-8.49-1.71-2.6-1.1-4.93-2.67-6.93-4.67-2-2-3.57-4.33-4.67-6.92-1.14-2.68-1.71-5.53-1.71-8.47s.58-5.79,1.71-8.47c1.1-2.59,2.67-4.92,4.67-6.92,2-2,4.33-3.57,6.93-4.67,2.69-1.13,5.54-1.71,8.49-1.71s5.8,.58,8.49,1.71c2.6,1.1,4.93,2.67,6.93,4.67,2,2,3.57,4.33,4.67,6.92,1.14,2.68,1.71,5.53,1.71,8.47s-.58,5.79-1.71,8.47c-1.1,2.59-2.67,4.92-4.67,6.92-2,2-4.33,3.57-6.93,4.67-2.69,1.13-5.54,1.71-8.49,1.71Z"/><g class="cls-3"><path class="cls-1" d="M16.89,22.02c0-1.07,0-2.13,0-3.19,0-.32-.12-.43-.43-.43-.47,0-.95,0-1.42,0-.34,0-.45,.11-.45,.46v6.33c0,.34,.12,.46,.46,.46,.46,0,.92,0,1.38,0,.36,0,.47-.11,.47-.48v-3.13m4.24-.01c0,1.06,0,2.12,0,3.17,0,.32,.12,.45,.45,.45,.47,0,.95,0,1.42,0,.33,0,.46-.12,.46-.46v-6.33c0-.33-.13-.45-.45-.45-.47,0-.93,0-1.4,0-.36,0-.47,.11-.48,.48v3.14m6.56-.01c0,1.06,0,2.12,0,3.17,0,.35,.12,.47,.47,.47,.47,0,.95,0,1.42,0,.3,0,.43-.13,.43-.43,0-2.13,0-4.26,0-6.39,0-.3-.13-.42-.43-.42-.46,0-.92,0-1.38,0-.41,0-.5,.1-.51,.51v3.1m-5.4,5.47h5.81c.77,0,1.53,0,2.3,0,.3,0,.43-.13,.43-.43,0-.23,0-.47,0-.7,0-.23-.12-.35-.35-.37-.06,0-.12,0-.18,0-5.35,0-10.69,0-16.03,0-.05,0-.11,0-.16,0-.24,.02-.35,.14-.36,.38,0,.2,0,.4,0,.6,0,.42,.09,.52,.51,.52h8.03m-.02,1.83h8.76c.07,0,.14,0,.21,0,.19-.02,.31-.14,.32-.33,0-.27,0-.55,0-.82,0-.21-.12-.32-.33-.34-.08,0-.16,0-.23,0H13.43c-.31,0-.42,.12-.42,.43,0,.19,0,.38,0,.57,0,.41,.09,.5,.51,.5h8.76"/><path class="cls-1" d="M22.29,13.96c-.74,0-1.35,.62-1.35,1.36s.64,1.37,1.37,1.36c.74-.02,1.35-.64,1.34-1.37-.01-.74-.63-1.35-1.36-1.35m-9.97,3.46c.1-.09,.18-.2,.3-.27,3.13-1.74,6.26-3.47,9.39-5.2,.2-.11,.36-.11,.56,0,3.14,1.74,6.29,3.48,9.43,5.22,.26,.14,.35,.33,.22,.51-.05,.08-.16,.13-.25,.16-.05,.03-.13,0-.19,0-6.32,0-12.65,0-18.97,0-.21,0-.38-.05-.49-.24v-.19Z"/><path class="cls-1" d="M22.28,29.3H13.52c-.41,0-.51-.09-.51-.5,0-.19,0-.38,0-.57,0-.31,.12-.42,.42-.43H31.02c.08,0,.16,0,.23,0,.2,.02,.32,.13,.33,.34,0,.27,0,.55,0,.82,0,.19-.13,.31-.32,.33-.07,0-.14,0-.21,0h-8.76"/><path class="cls-1" d="M22.3,27.47H14.27c-.42,0-.51-.09-.51-.52,0-.2,0-.4,0-.6,0-.24,.12-.35,.36-.38,.05,0,.11,0,.16,0H30.31c.06,0,.12,0,.18,0,.22,.03,.34,.14,.35,.37,0,.23,0,.47,0,.7,0,.3-.13,.43-.43,.43-.77,0-1.53,0-2.3,0h-5.81Z"/><path class="cls-1" d="M27.7,21.99v-3.1c0-.41,.1-.51,.5-.51,.46,0,.92,0,1.38,0,.3,0,.43,.12,.43,.42v6.39c0,.3-.13,.43-.43,.43-.47,0-.95,0-1.42,0-.35,0-.47-.11-.47-.47,0-1.06,0-2.12,0-3.17"/><path class="cls-1" d="M21.14,22.01v-3.14c0-.37,.11-.48,.48-.48,.47,0,.93,0,1.4,0,.32,0,.45,.13,.45,.45,0,2.11,0,4.22,0,6.33,0,.34-.12,.46-.46,.46-.47,0-.95,0-1.42,0-.32,0-.45-.13-.45-.45v-3.17"/><path class="cls-1" d="M16.89,22.02v3.14c0,.37-.11,.48-.47,.48-.46,0-.92,0-1.38,0-.34,0-.46-.12-.46-.46,0-2.11,0-4.22,0-6.33,0-.34,.11-.46,.45-.46,.47,0,.95,0,1.42,0,.32,0,.43,.12,.43,.43,0,1.06,0,2.13,0,3.19"/><path class="cls-1" d="M22.29,14.64c-.37,0-.66,.3-.67,.67,0,.38,.3,.68,.68,.67,.38,0,.67-.31,.66-.69,0-.37-.31-.66-.68-.65m0-.68c.73,0,1.35,.61,1.36,1.35,.01,.73-.6,1.35-1.34,1.37-.73,.02-1.37-.62-1.37-1.36,0-.73,.61-1.35,1.35-1.36"/></g></g></g></svg>