<?xml version="1.0" encoding="UTF-8"?><svg id="Calque_2" xmlns="http://www.w3.org/2000/svg" viewBox="0 0 45 45"><defs><style>.cls-1{fill:#fff;}.cls-2{fill:#864ba2;}</style></defs><g id="Calque_1-2"><g><path id="Path_17007" class="cls-2" d="M22.5,0c12.43,0,22.5,10.07,22.5,22.5s-10.07,22.5-22.5,22.5S0,34.93,0,22.5,10.07,0,22.5,0Z"/><path class="cls-1" d="M26.05,26.98c1.13,0,2.26,0,3.38,0,.13,0,.17-.02,.17-.16,0-.32,0-.65,0-.97,0-.1,0-.15-.13-.15-2.28,0-4.55,0-6.83,0-.13,0-.14,.05-.14,.15,0,.32,.01,.64,0,.95,0,.16,.04,.18,.19,.18,1.12,0,2.24,0,3.37,0m6.71,1.27c-.07,0-.13,0-.2,0-6.7,0-13.4,0-20.1,0-.18,0-.24-.04-.23-.22,.02-.28,.02-.56,0-.84,0-.17,.03-.23,.22-.23,1.06,.01,2.13,0,3.19,0,.16,0,.2-.04,.2-.19,0-.99,0-1.99,0-2.98,0-.1,0-.18-.13-.22-.79-.25-1.36-.79-1.83-1.45-.73-1.04-1.1-2.21-1.27-3.45-.19-1.37-.14-2.74,.19-4.08,.26-1.03,.66-2,1.36-2.82,.65-.76,1.45-1.25,2.5-1.18,.87,.06,1.54,.51,2.1,1.15,.78,.89,1.2,1.94,1.44,3.08,.4,1.88,.35,3.75-.27,5.58-.34,1.02-.85,1.94-1.7,2.64-.29,.23-.6,.42-.96,.52-.12,.03-.15,.08-.15,.21,0,1.01,0,2.03,0,3.04,0,.13,.04,.16,.17,.16,1.26,0,2.51,0,3.77,0,.11,0,.17,0,.16-.15,0-.33,0-.66,0-.99,0-.12-.03-.15-.15-.14-.33,0-.67,0-1,0-.11,0-.15-.03-.15-.14,0-.33,0-.66,0-.99,0-.13,.05-.15,.16-.15,.16,0,.32,0,.48,0,.17,.02,.22-.03,.22-.21-.01-1.03,0-2.07,0-3.1,0-.51,.23-.74,.74-.74,3.03,0,6.05,0,9.08,0,.49,0,.72,.23,.72,.72,0,1.05,0,2.09,0,3.14,0,.15,.02,.21,.19,.2,.18-.02,.36,0,.54,0,.11,0,.13,.04,.13,.14,0,.34,0,.68,0,1.01,0,.11-.03,.13-.14,.13-.33,0-.67,0-1,0-.12,0-.16,.03-.16,.15,0,.32,0,.65,0,.98,0,.12,.03,.16,.15,.16,.57,0,1.15,0,1.72,0v1.27Z"/></g></g></svg>