<svg xmlns="http://www.w3.org/2000/svg" width="45" height="45" viewBox="0 0 45 45">
  <g id="Park_2" data-name="Park 2" transform="translate(-1113 -584)">
    <g id="Parking" transform="translate(303)">
      <path id="Path_17005" data-name="Path 17005" d="M22.5,0A22.5,22.5,0,1,1,0,22.5,22.5,22.5,0,0,1,22.5,0Z" transform="translate(810 584)" fill="#864ba2"/>
      <path id="Path_16983" data-name="Path 16983" d="M54.826,21.866c1.077,0,2.152,0,3.229,0,.121,0,.165-.024.159-.154-.009-.308-.005-.619,0-.929,0-.1-.009-.143-.128-.143q-3.258.005-6.517,0c-.121,0-.132.048-.13.143.005.3.013.608,0,.91-.007.148.042.172.179.172,1.07-.005,2.139,0,3.211,0m6.4,1.214c-.064,0-.126,0-.19,0q-9.591,0-19.18.005c-.17,0-.227-.038-.216-.212a7.228,7.228,0,0,0,0-.8c-.009-.163.026-.222.209-.22,1.013.011,2.028,0,3.04.009.15,0,.189-.037.189-.185-.007-.949-.005-1.9,0-2.846,0-.1.005-.172-.123-.214a3.4,3.4,0,0,1-1.744-1.379A7.344,7.344,0,0,1,42,13.954a10.187,10.187,0,0,1,.183-3.9,6.337,6.337,0,0,1,1.3-2.687A2.817,2.817,0,0,1,45.87,6.243a2.88,2.88,0,0,1,2,1.093,6.359,6.359,0,0,1,1.377,2.936,9.925,9.925,0,0,1-.256,5.328,5.319,5.319,0,0,1-1.626,2.515,2.6,2.6,0,0,1-.912.5.171.171,0,0,0-.147.2q.008,1.451,0,2.9c0,.125.035.154.158.154,1.2-.005,2.4,0,3.6,0,.106,0,.159-.009.154-.139-.009-.315-.007-.632,0-.947,0-.112-.033-.139-.139-.137-.319.007-.637,0-.956.005-.108,0-.145-.027-.143-.137.007-.315.009-.632,0-.949,0-.126.046-.147.156-.141.152.009.306-.007.458.005s.214-.026.212-.2c-.011-.985-.005-1.973-.005-2.958,0-.491.216-.711.705-.711q4.332,0,8.661,0a.6.6,0,0,1,.69.683c0,1,0,2,0,3,0,.141.024.205.183.19s.344,0,.516-.005c.1,0,.128.035.126.132,0,.322-.005.645,0,.967,0,.1-.033.128-.132.128-.319-.005-.637,0-.956-.005-.115,0-.154.027-.15.147.007.31.007.621,0,.93,0,.115.027.148.147.148.548-.007,1.1,0,1.645,0Z" transform="translate(781.357 591.763)" fill="#fff"/>
    </g>
  </g>
</svg>
