<?xml version="1.0" encoding="UTF-8"?><svg id="Calque_2" xmlns="http://www.w3.org/2000/svg" viewBox="0 0 44.61 44.53"><defs><style>.cls-1{fill:#fff;}.cls-2{fill:#864ba2;stroke:#fff;stroke-miterlimit:10;}</style></defs><g id="Calque_1-2"><g><path class="cls-2" d="M22.3,44.03c-2.94,0-5.8-.58-8.49-1.71-2.6-1.1-4.93-2.67-6.93-4.67-2-2-3.57-4.33-4.67-6.92-1.14-2.68-1.71-5.53-1.71-8.47s.58-5.79,1.71-8.47c1.1-2.59,2.67-4.92,4.67-6.92,2-2,4.33-3.57,6.93-4.67,2.69-1.13,5.54-1.71,8.49-1.71s5.8,.58,8.49,1.71c2.6,1.1,4.93,2.67,6.93,4.67,2,2,3.57,4.33,4.67,6.92,1.14,2.68,1.71,5.53,1.71,8.47s-.58,5.79-1.71,8.47c-1.1,2.59-2.67,4.92-4.67,6.92-2,2-4.33,3.57-6.93,4.67-2.69,1.13-5.54,1.71-8.49,1.71Z"/><path class="cls-1" d="M26.36,27.31c1.14,0,2.29,0,3.43,0,.13,0,.18-.03,.17-.16,0-.33,0-.66,0-.99,0-.1,0-.15-.14-.15-2.31,0-4.62,0-6.93,0-.13,0-.14,.05-.14,.15,0,.32,.01,.65,0,.97,0,.16,.04,.18,.19,.18,1.14,0,2.27,0,3.41,0m6.81,1.29c-.07,0-.13,0-.2,0-6.8,0-13.59,0-20.39,0-.18,0-.24-.04-.23-.23,.02-.28,.02-.56,0-.85,0-.17,.03-.24,.22-.23,1.08,.01,2.15,0,3.23,0,.16,0,.2-.04,.2-.2,0-1.01,0-2.01,0-3.02,0-.1,0-.18-.13-.23-.8-.25-1.38-.8-1.85-1.46-.74-1.05-1.11-2.24-1.29-3.49-.19-1.39-.14-2.77,.19-4.13,.26-1.04,.67-2.02,1.38-2.85,.66-.77,1.47-1.27,2.54-1.2,.89,.06,1.57,.52,2.13,1.16,.79,.9,1.22,1.97,1.46,3.12,.41,1.9,.35,3.8-.27,5.65-.35,1.03-.86,1.96-1.73,2.67-.29,.24-.61,.43-.97,.53-.12,.03-.16,.09-.16,.21,0,1.03,0,2.05,0,3.08,0,.13,.04,.16,.17,.16,1.27,0,2.55,0,3.82,0,.11,0,.17,0,.16-.15,0-.33,0-.67,0-1,0-.12-.04-.15-.15-.15-.34,0-.68,0-1.02,0-.11,0-.15-.03-.15-.15,0-.33,0-.67,0-1.01,0-.13,.05-.16,.17-.15,.16,0,.33,0,.49,0,.17,.02,.23-.03,.23-.21-.01-1.05,0-2.09,0-3.14,0-.52,.23-.75,.75-.75,3.07,0,6.14,0,9.21,0,.5,0,.73,.23,.73,.72,0,1.06,0,2.12,0,3.18,0,.15,.03,.22,.19,.2,.18-.02,.37,0,.55,0,.11,0,.14,.04,.13,.14,0,.34,0,.68,0,1.03,0,.11-.04,.14-.14,.14-.34,0-.68,0-1.02,0-.12,0-.16,.03-.16,.16,0,.33,0,.66,0,.99,0,.12,.03,.16,.16,.16,.58,0,1.17,0,1.75,0v1.29Z"/></g></g></svg>