<svg xmlns="http://www.w3.org/2000/svg" xmlns:xlink="http://www.w3.org/1999/xlink" width="63" height="63" viewBox="0 0 63 63">
  <defs>
    <filter id="Path_17005" x="0" y="0" width="63" height="63" filterUnits="userSpaceOnUse">
      <feOffset dy="3" input="SourceAlpha"/>
      <feGaussianBlur stdDeviation="3" result="blur"/>
      <feFlood flood-opacity="0.161"/>
      <feComposite operator="in" in2="blur"/>
      <feComposite in="SourceGraphic"/>
    </filter>
  </defs>
  <g id="Park" transform="translate(-801 -578)">
    <g transform="matrix(1, 0, 0, 1, 801, 578)" filter="url(#Path_17005)">
      <g id="Path_17005-2" data-name="Path 17005" transform="translate(9 6)" fill="#864ba2">
        <path d="M 22.5 44 C 19.59708023071289 44 16.78152084350586 43.43167877197266 14.13154029846191 42.31082916259766 C 11.57145023345947 41.22800827026367 9.272049903869629 39.67763900756836 7.297200202941895 37.70280075073242 C 5.322360038757324 35.72795104980469 3.771990060806274 33.42855072021484 2.689169883728027 30.86845970153809 C 1.568320035934448 28.21847915649414 1 25.40291976928711 1 22.5 C 1 19.59708023071289 1.568320035934448 16.78152084350586 2.689169883728027 14.13154029846191 C 3.771990060806274 11.57145023345947 5.322360038757324 9.272049903869629 7.297200202941895 7.297200202941895 C 9.272049903869629 5.322360038757324 11.57145023345947 3.771990060806274 14.13154029846191 2.689169883728027 C 16.78152084350586 1.568320035934448 19.59708023071289 1 22.5 1 C 25.40291976928711 1 28.21847915649414 1.568320035934448 30.86845970153809 2.689169883728027 C 33.42855072021484 3.771990060806274 35.72795104980469 5.322360038757324 37.70280075073242 7.297200202941895 C 39.67763900756836 9.272049903869629 41.22800827026367 11.57145023345947 42.31082916259766 14.13154029846191 C 43.43167877197266 16.78152084350586 44 19.59708023071289 44 22.5 C 44 25.40291976928711 43.43167877197266 28.21847915649414 42.31082916259766 30.86845970153809 C 41.22800827026367 33.42855072021484 39.67763900756836 35.72795104980469 37.70280075073242 37.70280075073242 C 35.72795104980469 39.67763900756836 33.42855072021484 41.22800827026367 30.86845970153809 42.31082916259766 C 28.21847915649414 43.43167877197266 25.40291976928711 44 22.5 44 Z" stroke="none"/>
        <path d="M 22.5 2 C 19.73163986206055 2 17.04714012145996 2.541740417480469 14.52108955383301 3.61016845703125 C 12.0802001953125 4.642578125 9.887641906738281 6.120979309082031 8.004310607910156 8.004310607910156 C 6.120979309082031 9.887641906738281 4.642578125 12.0802001953125 3.61016845703125 14.52108955383301 C 2.541740417480469 17.04714012145996 2 19.73163986206055 2 22.5 C 2 25.26836013793945 2.541740417480469 27.95285987854004 3.61016845703125 30.47891044616699 C 4.642578125 32.9197998046875 6.120979309082031 35.11235809326172 8.004310607910156 36.99568939208984 C 9.887641906738281 38.87902069091797 12.0802001953125 40.357421875 14.52108955383301 41.38983154296875 C 17.04714012145996 42.45825958251953 19.73163986206055 43 22.5 43 C 25.26836013793945 43 27.95285987854004 42.45825958251953 30.47891044616699 41.38983154296875 C 32.9197998046875 40.357421875 35.11235809326172 38.87902069091797 36.99568939208984 36.99568939208984 C 38.87902069091797 35.11235809326172 40.357421875 32.9197998046875 41.38983154296875 30.47891044616699 C 42.45825958251953 27.95285987854004 43 25.26836013793945 43 22.5 C 43 19.73163986206055 42.45825958251953 17.04714012145996 41.38983154296875 14.52108955383301 C 40.357421875 12.0802001953125 38.87902069091797 9.887641906738281 36.99568939208984 8.004310607910156 C 35.11235809326172 6.120979309082031 32.9197998046875 4.642578125 30.47891044616699 3.61016845703125 C 27.95285987854004 2.541740417480469 25.26836013793945 2 22.5 2 M 22.5 0 C 34.92641067504883 0 45 10.07358932495117 45 22.5 C 45 34.92641067504883 34.92641067504883 45 22.5 45 C 10.07358932495117 45 0 34.92641067504883 0 22.5 C 0 10.07358932495117 10.07358932495117 0 22.5 0 Z" stroke="none" fill="#fff"/>
      </g>
    </g>
    <path id="Path_16983" data-name="Path 16983" d="M54.826,21.866c1.077,0,2.152,0,3.229,0,.121,0,.165-.024.159-.154-.009-.308-.005-.619,0-.929,0-.1-.009-.143-.128-.143q-3.258.005-6.517,0c-.121,0-.132.048-.13.143.005.3.013.608,0,.91-.007.148.042.172.179.172,1.07-.005,2.139,0,3.211,0m6.4,1.214c-.064,0-.126,0-.19,0q-9.591,0-19.18.005c-.17,0-.227-.038-.216-.212a7.228,7.228,0,0,0,0-.8c-.009-.163.026-.222.209-.22,1.013.011,2.028,0,3.04.009.15,0,.189-.037.189-.185-.007-.949-.005-1.9,0-2.846,0-.1.005-.172-.123-.214a3.4,3.4,0,0,1-1.744-1.379A7.344,7.344,0,0,1,42,13.954a10.187,10.187,0,0,1,.183-3.9,6.337,6.337,0,0,1,1.3-2.687A2.817,2.817,0,0,1,45.87,6.243a2.88,2.88,0,0,1,2,1.093,6.359,6.359,0,0,1,1.377,2.936,9.925,9.925,0,0,1-.256,5.328,5.319,5.319,0,0,1-1.626,2.515,2.6,2.6,0,0,1-.912.5.171.171,0,0,0-.147.2q.008,1.451,0,2.9c0,.125.035.154.158.154,1.2-.005,2.4,0,3.6,0,.106,0,.159-.009.154-.139-.009-.315-.007-.632,0-.947,0-.112-.033-.139-.139-.137-.319.007-.637,0-.956.005-.108,0-.145-.027-.143-.137.007-.315.009-.632,0-.949,0-.126.046-.147.156-.141.152.009.306-.007.458.005s.214-.026.212-.2c-.011-.985-.005-1.973-.005-2.958,0-.491.216-.711.705-.711q4.332,0,8.661,0a.6.6,0,0,1,.69.683c0,1,0,2,0,3,0,.141.024.205.183.19s.344,0,.516-.005c.1,0,.128.035.126.132,0,.322-.005.645,0,.967,0,.1-.033.128-.132.128-.319-.005-.637,0-.956-.005-.115,0-.154.027-.15.147.007.31.007.621,0,.93,0,.115.027.148.147.148.548-.007,1.1,0,1.645,0Z" transform="translate(781.357 591.763)" fill="#fff"/>
  </g>
</svg>
