<svg xmlns="http://www.w3.org/2000/svg" xmlns:xlink="http://www.w3.org/1999/xlink" width="63" height="63" viewBox="0 0 63 63">
  <defs>
    <filter id="Path_16925" x="0" y="0" width="63" height="63" filterUnits="userSpaceOnUse">
      <feOffset dy="3" input="SourceAlpha"/>
      <feGaussianBlur stdDeviation="3" result="blur"/>
      <feFlood flood-opacity="0.161"/>
      <feComposite operator="in" in2="blur"/>
      <feComposite in="SourceGraphic"/>
    </filter>
    <clipPath id="clip-path">
      <rect id="Rectangle_4042" data-name="Rectangle 4042" width="17.77" height="16.309" fill="#fff"/>
    </clipPath>
  </defs>
  <g id="Pharmacie" transform="translate(1901 -4744)">
    <g transform="matrix(1, 0, 0, 1, -1901, 4744)" filter="url(#Path_16925)">
      <g id="Path_16925-2" data-name="Path 16925" transform="translate(9 6)" fill="#864ba2">
        <path d="M 22.5 44 C 19.59708023071289 44 16.78152084350586 43.43167877197266 14.13154029846191 42.31082916259766 C 11.57145023345947 41.22800827026367 9.272049903869629 39.67763900756836 7.297200202941895 37.70280075073242 C 5.322360038757324 35.72795104980469 3.771990060806274 33.42855072021484 2.689169883728027 30.86845970153809 C 1.568320035934448 28.21847915649414 1 25.40291976928711 1 22.5 C 1 19.59708023071289 1.568320035934448 16.78152084350586 2.689169883728027 14.13154029846191 C 3.771990060806274 11.57145023345947 5.322360038757324 9.272049903869629 7.297200202941895 7.297200202941895 C 9.272049903869629 5.322360038757324 11.57145023345947 3.771990060806274 14.13154029846191 2.689169883728027 C 16.78152084350586 1.568320035934448 19.59708023071289 1 22.5 1 C 25.40291976928711 1 28.21847915649414 1.568320035934448 30.86845970153809 2.689169883728027 C 33.42855072021484 3.771990060806274 35.72795104980469 5.322360038757324 37.70280075073242 7.297200202941895 C 39.67763900756836 9.272049903869629 41.22800827026367 11.57145023345947 42.31082916259766 14.13154029846191 C 43.43167877197266 16.78152084350586 44 19.59708023071289 44 22.5 C 44 25.40291976928711 43.43167877197266 28.21847915649414 42.31082916259766 30.86845970153809 C 41.22800827026367 33.42855072021484 39.67763900756836 35.72795104980469 37.70280075073242 37.70280075073242 C 35.72795104980469 39.67763900756836 33.42855072021484 41.22800827026367 30.86845970153809 42.31082916259766 C 28.21847915649414 43.43167877197266 25.40291976928711 44 22.5 44 Z" stroke="none"/>
        <path d="M 22.5 2 C 19.73163986206055 2 17.04714012145996 2.541740417480469 14.52108955383301 3.61016845703125 C 12.0802001953125 4.642578125 9.887641906738281 6.120979309082031 8.004310607910156 8.004310607910156 C 6.120979309082031 9.887641906738281 4.642578125 12.0802001953125 3.61016845703125 14.52108955383301 C 2.541740417480469 17.04714012145996 2 19.73163986206055 2 22.5 C 2 25.26836013793945 2.541740417480469 27.95285987854004 3.61016845703125 30.47891044616699 C 4.642578125 32.9197998046875 6.120979309082031 35.11235809326172 8.004310607910156 36.99568939208984 C 9.887641906738281 38.87902069091797 12.0802001953125 40.357421875 14.52108955383301 41.38983154296875 C 17.04714012145996 42.45825958251953 19.73163986206055 43 22.5 43 C 25.26836013793945 43 27.95285987854004 42.45825958251953 30.47891044616699 41.38983154296875 C 32.9197998046875 40.357421875 35.11235809326172 38.87902069091797 36.99568939208984 36.99568939208984 C 38.87902069091797 35.11235809326172 40.357421875 32.9197998046875 41.38983154296875 30.47891044616699 C 42.45825958251953 27.95285987854004 43 25.26836013793945 43 22.5 C 43 19.73163986206055 42.45825958251953 17.04714012145996 41.38983154296875 14.52108955383301 C 40.357421875 12.0802001953125 38.87902069091797 9.887641906738281 36.99568939208984 8.004310607910156 C 35.11235809326172 6.120979309082031 32.9197998046875 4.642578125 30.47891044616699 3.61016845703125 C 27.95285987854004 2.541740417480469 25.26836013793945 2 22.5 2 M 22.5 0 C 34.92641067504883 0 45 10.07358932495117 45 22.5 C 45 34.92641067504883 34.92641067504883 45 22.5 45 C 10.07358932495117 45 0 34.92641067504883 0 22.5 C 0 10.07358932495117 10.07358932495117 0 22.5 0 Z" stroke="none" fill="#fff"/>
      </g>
    </g>
    <g id="Group_16778" data-name="Group 16778" transform="translate(-1878.385 4764)">
      <g id="Group_16777" data-name="Group 16777" clip-path="url(#clip-path)">
        <path id="Path_16923" data-name="Path 16923" d="M17.77,6.488V6.8c-.011.011-.028.02-.033.034a.762.762,0,0,1-.828.59c-.393,0-.787.009-1.18,0-.158-.005-.184.042-.184.189q.007,3.9,0,7.809c0,.069,0,.139,0,.208a.691.691,0,0,1-.66.677c-.063.006-.127.005-.191.005H3.069a1.707,1.707,0,0,1-.208-.008.688.688,0,0,1-.635-.664c-.005-.069,0-.139,0-.208q0-3.913,0-7.826c0-.137-.021-.187-.173-.182-.4.013-.81,0-1.214,0a.77.77,0,0,1-.794-.545.68.68,0,0,1,.329-.843L8.348.236a.73.73,0,0,1,1.075,0Q13.39,3.12,17.358,6a1.019,1.019,0,0,1,.412.485M8.882,14.823a4.441,4.441,0,1,0-4.438-4.45,4.459,4.459,0,0,0,4.438,4.45" transform="translate(0 0)" fill="#fff"/>
        <path id="Path_16924" data-name="Path 16924" d="M129.838,163.207c0-.33,0-.659,0-.989,0-.106.025-.136.134-.135q.98.008,1.96,0c.111,0,.133.034.132.137,0,.63,0,1.26-.006,1.89,0,.149.024.2.191.2.624-.012,1.249,0,1.873-.008.125,0,.166.023.164.158q-.012.954,0,1.908c0,.126-.025.164-.158.162-.636-.008-1.272,0-1.908-.007-.129,0-.163.03-.162.161.007.642,0,1.283.006,1.925,0,.115-.031.142-.143.141q-.971-.008-1.942,0c-.115,0-.142-.031-.141-.143.005-.642,0-1.284.006-1.925,0-.134-.037-.16-.164-.159-.63.007-1.26,0-1.89.007-.151,0-.176-.043-.174-.182.008-.618.011-1.237,0-1.856,0-.168.053-.193.2-.191.624.008,1.249,0,1.873.006.117,0,.158-.022.154-.148-.01-.318,0-.636,0-.954" transform="translate(-122.063 -155.035)" fill="#fff"/>
      </g>
    </g>
  </g>
</svg>
