<svg xmlns="http://www.w3.org/2000/svg" xmlns:xlink="http://www.w3.org/1999/xlink" width="45" height="45" viewBox="0 0 45 45">
  <defs>
    <clipPath id="clip-path">
      <rect id="Rectangle_4042" data-name="Rectangle 4042" width="17.77" height="16.309" fill="#fff"/>
    </clipPath>
  </defs>
  <g id="Pharmacie_2" data-name="Pharmacie 2" transform="translate(-1049 -588.204)">
    <g id="Pharmacie" transform="translate(2941 -4161.796)">
      <path id="Path_16925" data-name="Path 16925" d="M22.5,0A22.5,22.5,0,1,1,0,22.5,22.5,22.5,0,0,1,22.5,0Z" transform="translate(-1892 4750)" fill="#864ba2"/>
      <g id="Group_16778" data-name="Group 16778" transform="translate(-1878.385 4764)">
        <g id="Group_16777" data-name="Group 16777" clip-path="url(#clip-path)">
          <path id="Path_16923" data-name="Path 16923" d="M17.77,6.488V6.8c-.011.011-.028.02-.033.034a.762.762,0,0,1-.828.59c-.393,0-.787.009-1.18,0-.158-.005-.184.042-.184.189q.007,3.9,0,7.809c0,.069,0,.139,0,.208a.691.691,0,0,1-.66.677c-.063.006-.127.005-.191.005H3.069a1.707,1.707,0,0,1-.208-.008.688.688,0,0,1-.635-.664c-.005-.069,0-.139,0-.208q0-3.913,0-7.826c0-.137-.021-.187-.173-.182-.4.013-.81,0-1.214,0a.77.77,0,0,1-.794-.545.68.68,0,0,1,.329-.843L8.348.236a.73.73,0,0,1,1.075,0Q13.39,3.12,17.358,6a1.019,1.019,0,0,1,.412.485M8.882,14.823a4.441,4.441,0,1,0-4.438-4.45,4.459,4.459,0,0,0,4.438,4.45" transform="translate(0 0)" fill="#fff"/>
          <path id="Path_16924" data-name="Path 16924" d="M129.838,163.207c0-.33,0-.659,0-.989,0-.106.025-.136.134-.135q.98.008,1.96,0c.111,0,.133.034.132.137,0,.63,0,1.26-.006,1.89,0,.149.024.2.191.2.624-.012,1.249,0,1.873-.008.125,0,.166.023.164.158q-.012.954,0,1.908c0,.126-.025.164-.158.162-.636-.008-1.272,0-1.908-.007-.129,0-.163.03-.162.161.007.642,0,1.283.006,1.925,0,.115-.031.142-.143.141q-.971-.008-1.942,0c-.115,0-.142-.031-.141-.143.005-.642,0-1.284.006-1.925,0-.134-.037-.16-.164-.159-.63.007-1.26,0-1.89.007-.151,0-.176-.043-.174-.182.008-.618.011-1.237,0-1.856,0-.168.053-.193.2-.191.624.008,1.249,0,1.873.006.117,0,.158-.022.154-.148-.01-.318,0-.636,0-.954" transform="translate(-122.063 -155.035)" fill="#fff"/>
        </g>
      </g>
    </g>
  </g>
</svg>
