<svg xmlns="http://www.w3.org/2000/svg" width="45" height="45" viewBox="0 0 45 45">
  <g id="Salle_de_sport_2" data-name="Salle de sport 2" transform="translate(-1175 -584)">
    <g id="Salle_de_sport" data-name="Salle de sport" transform="translate(303)">
      <path id="Path_17006" data-name="Path 17006" d="M22.5,0A22.5,22.5,0,1,1,0,22.5,22.5,22.5,0,0,1,22.5,0Z" transform="translate(872 584)" fill="#864ba2"/>
      <g id="Group_16823" data-name="Group 16823" transform="translate(-118.077 -13.935)">
        <path id="Path_16977" data-name="Path 16977" d="M88.28,11.928c-.044.009-.042.047-.049.076a.834.834,0,0,1-1.338.371c-.039-.033-.076-.067-.112-.1q-2.009-1.991-4.016-3.985a.833.833,0,0,1,.269-1.44c.035-.012.086.005.109-.042h.279a1.414,1.414,0,0,1,.691.469c.29.3.587.58.877.874.06.062.09.065.149,0,.258-.262.519-.519.779-.773a.43.43,0,0,1,.661,0c.376.367.747.736,1.118,1.106a.418.418,0,0,1,0,.664c-.248.248-.494.5-.754.74-.095.09-.076.132.007.211.292.278.571.57.861.849a1.434,1.434,0,0,1,.468.68Z" transform="translate(931.09 606.131)" fill="#fff"/>
        <path id="Path_16978" data-name="Path 16978" d="M78.569,11.589a.848.848,0,0,1,.54.278L83.174,15.9a.814.814,0,0,1,.236.884.79.79,0,0,1-.649.557.833.833,0,0,1-.77-.264c-.345-.343-.694-.682-1.034-1.03-.086-.09-.134-.095-.221,0-.239.251-.49.492-.738.735a.425.425,0,0,1-.67,0q-.554-.546-1.106-1.1a.42.42,0,0,1,0-.673c.253-.253.5-.506.761-.752.07-.067.076-.1,0-.17q-.546-.527-1.077-1.067a.82.82,0,0,1,.067-1.271.9.9,0,0,1,.6-.163" transform="translate(927.441 609.756)" fill="#fff"/>
        <path id="Path_16979" data-name="Path 16979" d="M88.107,13.594a.8.8,0,0,1-.485.745.8.8,0,0,1-.875-.111,1.247,1.247,0,0,1-.125-.111q-2.6-2.584-5.212-5.169a.833.833,0,0,1,1.032-1.308,1.284,1.284,0,0,1,.156.137q2.6,2.579,5.2,5.159a.88.88,0,0,1,.306.657" transform="translate(930.069 606.638)" fill="#fff"/>
        <path id="Path_16980" data-name="Path 16980" d="M78.313,11.074a.834.834,0,0,1,1.362-.631,1.478,1.478,0,0,1,.125.111l5.212,5.169a.834.834,0,0,1-1.035,1.306,1.938,1.938,0,0,1-.156-.137q-2.6-2.581-5.2-5.159a.884.884,0,0,1-.3-.659" transform="translate(927.953 608.74)" fill="#fff"/>
        <path id="Path_16981" data-name="Path 16981" d="M82.236,13.894l-.069-.063q-.817-.812-1.64-1.624c-.056-.056-.054-.084,0-.141q1.2-1.194,2.4-2.392c.056-.056.084-.058.141,0q.817.817,1.638,1.626c.058.056.056.084,0,.141q-1.2,1.192-2.406,2.39c-.021.021-.046.042-.07.065" transform="translate(929.6 608.272)" fill="#fff"/>
      </g>
    </g>
  </g>
</svg>
