<svg xmlns="http://www.w3.org/2000/svg" xmlns:xlink="http://www.w3.org/1999/xlink" width="63" height="63" viewBox="0 0 63 63">
  <defs>
    <filter id="Path_17006" x="0" y="0" width="63" height="63" filterUnits="userSpaceOnUse">
      <feOffset dy="3" input="SourceAlpha"/>
      <feGaussianBlur stdDeviation="3" result="blur"/>
      <feFlood flood-opacity="0.161"/>
      <feComposite operator="in" in2="blur"/>
      <feComposite in="SourceGraphic"/>
    </filter>
  </defs>
  <g id="Group_16828" data-name="Group 16828" transform="translate(-863 -578)">
    <g id="Salle_de_sport" data-name="Salle de sport">
      <g transform="matrix(1, 0, 0, 1, 863, 578)" filter="url(#Path_17006)">
        <g id="Path_17006-2" data-name="Path 17006" transform="translate(9 6)" fill="#864ba2">
          <path d="M 22.5 44 C 19.59708023071289 44 16.78152084350586 43.43167877197266 14.13154029846191 42.31082916259766 C 11.57145023345947 41.22800827026367 9.272049903869629 39.67763900756836 7.297200202941895 37.70280075073242 C 5.322360038757324 35.72795104980469 3.771990060806274 33.42855072021484 2.689169883728027 30.86845970153809 C 1.568320035934448 28.21847915649414 1 25.40291976928711 1 22.5 C 1 19.59708023071289 1.568320035934448 16.78152084350586 2.689169883728027 14.13154029846191 C 3.771990060806274 11.57145023345947 5.322360038757324 9.272049903869629 7.297200202941895 7.297200202941895 C 9.272049903869629 5.322360038757324 11.57145023345947 3.771990060806274 14.13154029846191 2.689169883728027 C 16.78152084350586 1.568320035934448 19.59708023071289 1 22.5 1 C 25.40291976928711 1 28.21847915649414 1.568320035934448 30.86845970153809 2.689169883728027 C 33.42855072021484 3.771990060806274 35.72795104980469 5.322360038757324 37.70280075073242 7.297200202941895 C 39.67763900756836 9.272049903869629 41.22800827026367 11.57145023345947 42.31082916259766 14.13154029846191 C 43.43167877197266 16.78152084350586 44 19.59708023071289 44 22.5 C 44 25.40291976928711 43.43167877197266 28.21847915649414 42.31082916259766 30.86845970153809 C 41.22800827026367 33.42855072021484 39.67763900756836 35.72795104980469 37.70280075073242 37.70280075073242 C 35.72795104980469 39.67763900756836 33.42855072021484 41.22800827026367 30.86845970153809 42.31082916259766 C 28.21847915649414 43.43167877197266 25.40291976928711 44 22.5 44 Z" stroke="none"/>
          <path d="M 22.5 2 C 19.73163986206055 2 17.04714012145996 2.541740417480469 14.52108955383301 3.61016845703125 C 12.0802001953125 4.642578125 9.887641906738281 6.120979309082031 8.004310607910156 8.004310607910156 C 6.120979309082031 9.887641906738281 4.642578125 12.0802001953125 3.61016845703125 14.52108955383301 C 2.541740417480469 17.04714012145996 2 19.73163986206055 2 22.5 C 2 25.26836013793945 2.541740417480469 27.95285987854004 3.61016845703125 30.47891044616699 C 4.642578125 32.9197998046875 6.120979309082031 35.11235809326172 8.004310607910156 36.99568939208984 C 9.887641906738281 38.87902069091797 12.0802001953125 40.357421875 14.52108955383301 41.38983154296875 C 17.04714012145996 42.45825958251953 19.73163986206055 43 22.5 43 C 25.26836013793945 43 27.95285987854004 42.45825958251953 30.47891044616699 41.38983154296875 C 32.9197998046875 40.357421875 35.11235809326172 38.87902069091797 36.99568939208984 36.99568939208984 C 38.87902069091797 35.11235809326172 40.357421875 32.9197998046875 41.38983154296875 30.47891044616699 C 42.45825958251953 27.95285987854004 43 25.26836013793945 43 22.5 C 43 19.73163986206055 42.45825958251953 17.04714012145996 41.38983154296875 14.52108955383301 C 40.357421875 12.0802001953125 38.87902069091797 9.887641906738281 36.99568939208984 8.004310607910156 C 35.11235809326172 6.120979309082031 32.9197998046875 4.642578125 30.47891044616699 3.61016845703125 C 27.95285987854004 2.541740417480469 25.26836013793945 2 22.5 2 M 22.5 0 C 34.92641067504883 0 45 10.07358932495117 45 22.5 C 45 34.92641067504883 34.92641067504883 45 22.5 45 C 10.07358932495117 45 0 34.92641067504883 0 22.5 C 0 10.07358932495117 10.07358932495117 0 22.5 0 Z" stroke="none" fill="#fff"/>
        </g>
      </g>
      <g id="Group_16823" data-name="Group 16823" transform="translate(-118.077 -13.935)">
        <path id="Path_16977" data-name="Path 16977" d="M88.28,11.928c-.044.009-.042.047-.049.076a.834.834,0,0,1-1.338.371c-.039-.033-.076-.067-.112-.1q-2.009-1.991-4.016-3.985a.833.833,0,0,1,.269-1.44c.035-.012.086.005.109-.042h.279a1.414,1.414,0,0,1,.691.469c.29.3.587.58.877.874.06.062.09.065.149,0,.258-.262.519-.519.779-.773a.43.43,0,0,1,.661,0c.376.367.747.736,1.118,1.106a.418.418,0,0,1,0,.664c-.248.248-.494.5-.754.74-.095.09-.076.132.007.211.292.278.571.57.861.849a1.434,1.434,0,0,1,.468.68Z" transform="translate(931.09 606.131)" fill="#fff"/>
        <path id="Path_16978" data-name="Path 16978" d="M78.569,11.589a.848.848,0,0,1,.54.278L83.174,15.9a.814.814,0,0,1,.236.884.79.79,0,0,1-.649.557.833.833,0,0,1-.77-.264c-.345-.343-.694-.682-1.034-1.03-.086-.09-.134-.095-.221,0-.239.251-.49.492-.738.735a.425.425,0,0,1-.67,0q-.554-.546-1.106-1.1a.42.42,0,0,1,0-.673c.253-.253.5-.506.761-.752.07-.067.076-.1,0-.17q-.546-.527-1.077-1.067a.82.82,0,0,1,.067-1.271.9.9,0,0,1,.6-.163" transform="translate(927.441 609.756)" fill="#fff"/>
        <path id="Path_16979" data-name="Path 16979" d="M88.107,13.594a.8.8,0,0,1-.485.745.8.8,0,0,1-.875-.111,1.247,1.247,0,0,1-.125-.111q-2.6-2.584-5.212-5.169a.833.833,0,0,1,1.032-1.308,1.284,1.284,0,0,1,.156.137q2.6,2.579,5.2,5.159a.88.88,0,0,1,.306.657" transform="translate(930.069 606.638)" fill="#fff"/>
        <path id="Path_16980" data-name="Path 16980" d="M78.313,11.074a.834.834,0,0,1,1.362-.631,1.478,1.478,0,0,1,.125.111l5.212,5.169a.834.834,0,0,1-1.035,1.306,1.938,1.938,0,0,1-.156-.137q-2.6-2.581-5.2-5.159a.884.884,0,0,1-.3-.659" transform="translate(927.953 608.74)" fill="#fff"/>
        <path id="Path_16981" data-name="Path 16981" d="M82.236,13.894l-.069-.063q-.817-.812-1.64-1.624c-.056-.056-.054-.084,0-.141q1.2-1.194,2.4-2.392c.056-.056.084-.058.141,0q.817.817,1.638,1.626c.058.056.056.084,0,.141q-1.2,1.192-2.406,2.39c-.021.021-.046.042-.07.065" transform="translate(929.6 608.272)" fill="#fff"/>
      </g>
    </g>
  </g>
</svg>
