<svg xmlns="http://www.w3.org/2000/svg" xmlns:xlink="http://www.w3.org/1999/xlink" width="82.886" height="53.4" viewBox="0 0 82.886 53.4">
  <defs>
    <clipPath id="clip-path">
      <rect id="Rectangle_4056" data-name="Rectangle 4056" width="82.886" height="53.4" fill="none"/>
    </clipPath>
  </defs>
  <g id="Groupe_16860" data-name="Groupe 16860" transform="translate(0 -0.001)">
    <g id="Groupe_16859" data-name="Groupe 16859" transform="translate(0 0.001)" clip-path="url(#clip-path)">
      <path id="Tracé_17091" data-name="Tracé 17091" d="M41.863,0C18.7,0,0,12.968,0,26.416,0,39.322,15.616,53.32,41.863,53.4c25.4.157,41.023-14.787,41.023-26.354C82.809,12.654,64.8,0,41.863,0" transform="translate(0 -0.001)" fill="#00326f"/>
      <path id="Tracé_17092" data-name="Tracé 17092" d="M37.748.765C23.663.765,2.806,9.8,2.721,25.3c0,15.886,20.251,24.929,35.335,24.929s33.858-8.179,33.858-24.143C71.922,8,51.525.765,37.748.765" transform="translate(4.269 1.199)" fill="#fff"/>
      <path id="Tracé_17093" data-name="Tracé 17093" d="M9.215,10.874c-.462-.786-.462-1.171.617-1.88A26.324,26.324,0,0,1,25.757,3.64c9.158,0,13.785,3.224,15.092,4.167,1.308,1.022,3.617,4.01,3.617,6.607-.085,2.674-3.155,4.727-3.933,5.112s-1.385.627.085,1.171c1.539.55,6.235,1.809,6.235,7.321,0,5.418-3,7.314-6.7,8.965a33.433,33.433,0,0,1-13.238,2.674c-4.848,0-10.622-1.415-13.315-2.911s-4-2.438-4.311-2.9-.694-.794-.077-1.493l1-1.022c.383-.316.614-.393,1-.08a7.386,7.386,0,0,1,.925.786.7.7,0,0,0,.845-.786V12.526s0-.786-.7-.542c-.617.234-1.31.786-2,.234a2.964,2.964,0,0,1-1.071-1.344" transform="translate(13.943 5.71)" fill="#00326f"/>
      <path id="Tracé_17094" data-name="Tracé 17094" d="M13.994,6.382V15.5s-.162.629.922.629c.771,0,4.85-.08,4.85-.08s5.387,0,5.387-5.189c0-5.269-6.242-5.585-6.242-5.585a23.3,23.3,0,0,0-3.617,0c-1.385.159-1.3,1.1-1.3,1.1" transform="translate(21.942 8.167)" fill="#fff"/>
      <path id="Tracé_17095" data-name="Tracé 17095" d="M14.02,12.423v9.438s0,1.886,2.923,1.886c2.849,0,5.158.316,7.545-.943,2.309-1.259,3.378-1.652,3.378-5.742,0-4.01-3.232-5.819-9.081-5.9-1.618-.077-2.849,0-3.543,0a1.193,1.193,0,0,0-1.223,1.259" transform="translate(21.994 17.46)" fill="#fff"/>
    </g>
  </g>
</svg>
