<svg xmlns="http://www.w3.org/2000/svg" xmlns:xlink="http://www.w3.org/1999/xlink" width="48.165" height="62.448" viewBox="0 0 48.165 62.448">
  <defs>
    <clipPath id="clip-path">
      <path id="Tracé_17100" data-name="Tracé 17100" d="M0,31.47H48.165V-30.978H0Z" transform="translate(0 30.978)" fill="none"/>
    </clipPath>
  </defs>
  <g id="Groupe_16876" data-name="Groupe 16876" transform="translate(0 30.978)">
    <g id="Groupe_16865" data-name="Groupe 16865" transform="translate(0 -30.978)" clip-path="url(#clip-path)">
      <g id="Groupe_16861" data-name="Groupe 16861" transform="translate(14.186 3.948)">
        <path id="Tracé_17096" data-name="Tracé 17096" d="M1.226.691C1.239-.212.8-.68.126-.68c-.8,0-1.217.49-1.217,1.512v.774l2.317.032Z" transform="translate(1.091 0.68)" fill="#007cc4"/>
      </g>
      <g id="Groupe_16862" data-name="Groupe 16862" transform="translate(41.377 8.993)">
        <path id="Tracé_17097" data-name="Tracé 17097" d="M0,1.108l.034-2.2H.85c1.077,0,1.593.391,1.593,1.155C2.443.705,1.95,1.12,1,1.108Z" transform="translate(0 1.091)" fill="#007cc4"/>
      </g>
      <g id="Groupe_16863" data-name="Groupe 16863" transform="translate(41.422 5.87)">
        <path id="Tracé_17098" data-name="Tracé 17098" d="M1.158.216A.994.994,0,0,1,1.3.755c0,.762-.7,1.089-1.47,1.089h-.86l.013-2.056Z" transform="translate(1.03 0.213)" fill="#007cc4"/>
      </g>
      <g id="Groupe_16864" data-name="Groupe 16864" transform="translate(10.948 4.013)">
        <path id="Tracé_17099" data-name="Tracé 17099" d="M0,1.107l2.113.012V.3c0-.73-.342-1.393-1.147-1.393a1.186,1.186,0,0,0-.5.1Z" transform="translate(0 1.09)" fill="#007cc4"/>
      </g>
    </g>
    <g id="Groupe_16866" data-name="Groupe 16866" transform="translate(0 24.232)">
      <path id="Tracé_17101" data-name="Tracé 17101" d="M0,0,35.812,7.237,37.458,0Z" fill="#ed1647"/>
    </g>
    <g id="Groupe_16872" data-name="Groupe 16872" transform="translate(0 -30.978)" clip-path="url(#clip-path)">
      <g id="Groupe_16867" data-name="Groupe 16867" transform="translate(-0.001 0)">
        <path id="Tracé_17102" data-name="Tracé 17102" d="M6.217,1.352A1.66,1.66,0,0,1,8.06,2.67h.023A1.742,1.742,0,0,1,9.942,1.223,2.141,2.141,0,0,1,12.1,3.608V6.349l-7-.069L4.84,7.511,12.1,10.246v1.306L4.471,14.242,4,12.839l6.24-1.927v-.022L4.528,8.9-5.531,53.88h37.46L42.636,5.892l-3.018-.611A1.68,1.68,0,0,1,38.233,7.1V7.12a1.7,1.7,0,0,1,1.525,1.762c0,1.252-1.009,2.048-2.513,2.048H34.355l.081-6.695-2.349-.47-.068,7.164H30.551l.074-7.453L6.8-1.331Zm19.6,3.242H23.591L23.6,3.4h5.883l-.011,1.2H27.282l-.057,6.336H25.757Zm-7.19,4.844a3.03,3.03,0,0,0,1.4.512A1.128,1.128,0,0,0,21.3,8.861c-.013-1.5-3.258-.861-3.258-3.429,0-1.232,1.056-2.189,2.649-2.189a4.742,4.742,0,0,1,2.239.631l-.62,1a3.2,3.2,0,0,0-1.5-.5c-.667,0-1.3.337-1.3,1.012,0,1.48,3.326,1.012,3.326,3.419a2.4,2.4,0,0,1-2.625,2.274,4.417,4.417,0,0,1-2.158-.577ZM4.161,16.612V15.219l7.937.067v1.393Zm0,9.6V24.785L10.5,22.958v-.022l-6.342-2.09V19.418L12.1,18.31l.159,1.415L6,20.291v.02l6.1,1.915v1.437L6,25.4v.022l6.261.782L12.1,27.54Z" transform="translate(5.531 1.331)" fill="#007cc1"/>
      </g>
      <g id="Groupe_16868" data-name="Groupe 16868" transform="translate(14.186 3.948)">
        <path id="Tracé_17103" data-name="Tracé 17103" d="M1.226.691C1.239-.212.8-.68.126-.68c-.8,0-1.217.49-1.217,1.512v.774l2.317.032Z" transform="translate(1.091 0.68)" fill="#007cc1"/>
      </g>
      <g id="Groupe_16869" data-name="Groupe 16869" transform="translate(41.377 8.993)">
        <path id="Tracé_17104" data-name="Tracé 17104" d="M0,1.108l.034-2.2H.85c1.077,0,1.593.391,1.593,1.155C2.443.705,1.95,1.12,1,1.108Z" transform="translate(0 1.091)" fill="#007cc1"/>
      </g>
      <g id="Groupe_16870" data-name="Groupe 16870" transform="translate(41.422 5.87)">
        <path id="Tracé_17105" data-name="Tracé 17105" d="M1.158.216A.994.994,0,0,1,1.3.755c0,.762-.7,1.089-1.47,1.089h-.86l.013-2.056Z" transform="translate(1.03 0.213)" fill="#007cc1"/>
      </g>
      <g id="Groupe_16871" data-name="Groupe 16871" transform="translate(10.948 4.013)">
        <path id="Tracé_17106" data-name="Tracé 17106" d="M0,1.107l2.113.012V.3c0-.73-.342-1.393-1.147-1.393a1.186,1.186,0,0,0-.5.1Z" transform="translate(0 1.09)" fill="#007cc1"/>
      </g>
    </g>
    <g id="Groupe_16873" data-name="Groupe 16873" transform="translate(0 24.232)">
      <path id="Tracé_17108" data-name="Tracé 17108" d="M0,0,35.812,7.237,37.458,0Z" fill="#ef3d42"/>
    </g>
    <g id="Groupe_16875" data-name="Groupe 16875" transform="translate(0 -30.978)" clip-path="url(#clip-path)">
      <g id="Groupe_16874" data-name="Groupe 16874" transform="translate(-0.001 0)">
        <path id="Tracé_17109" data-name="Tracé 17109" d="M6.217,1.352A1.66,1.66,0,0,1,8.06,2.67h.023A1.742,1.742,0,0,1,9.942,1.223,2.141,2.141,0,0,1,12.1,3.608V6.349l-7-.069L4.84,7.511,12.1,10.246v1.306L4.471,14.242,4,12.839l6.24-1.927v-.022L4.528,8.9-5.531,53.88h37.46L42.636,5.892l-3.018-.611A1.68,1.68,0,0,1,38.233,7.1V7.12a1.7,1.7,0,0,1,1.525,1.762c0,1.252-1.009,2.048-2.513,2.048H34.355l.081-6.695-2.349-.47-.068,7.164H30.551l.074-7.453L6.8-1.331Zm19.6,3.242H23.591L23.6,3.4h5.883l-.011,1.2H27.282l-.057,6.336H25.757Zm-7.19,4.844a3.03,3.03,0,0,0,1.4.512A1.128,1.128,0,0,0,21.3,8.861c-.013-1.5-3.258-.861-3.258-3.429,0-1.232,1.056-2.189,2.649-2.189a4.742,4.742,0,0,1,2.239.631l-.62,1a3.2,3.2,0,0,0-1.5-.5c-.667,0-1.3.337-1.3,1.012,0,1.48,3.326,1.012,3.326,3.419a2.4,2.4,0,0,1-2.625,2.274,4.417,4.417,0,0,1-2.158-.577ZM4.161,16.612V15.219l7.937.067v1.393Zm0,9.6V24.785L10.5,22.958v-.022l-6.342-2.09V19.418L12.1,18.31l.159,1.415L6,20.291v.02l6.1,1.915v1.437L6,25.4v.022l6.261.782L12.1,27.54Z" transform="translate(5.531 1.331)" fill="#007cc1"/>
      </g>
    </g>
  </g>
</svg>
