<svg xmlns="http://www.w3.org/2000/svg" width="45" height="45" viewBox="0 0 45 45">
  <g id="Group_16831" data-name="Group 16831" transform="translate(-1043 -643)">
    <path id="Path_17004" data-name="Path 17004" d="M22.5,0A22.5,22.5,0,1,1,0,22.5,22.5,22.5,0,0,1,22.5,0Z" transform="translate(1043 643)" fill="#864ba2"/>
    <g id="Group_16820" data-name="Group 16820" transform="translate(146.698 10.714)">
      <path id="Path_16985" data-name="Path 16985" d="M61.329,51c-.1.173-.124.375-.233.546a1.563,1.563,0,0,1-.583.581c-.15.08-.148.159-.1.3.28.814.55,1.632.828,2.446.047.138.045.208-.115.249a6.477,6.477,0,0,0-.684.225c-.169.068-.245.054-.3-.142-.153-.511-.334-1.012-.523-1.575-.054.161-.091.268-.128.377-.14.416-.282.833-.418,1.251-.037.117-.074.163-.21.111a6.937,6.937,0,0,0-.758-.247c-.163-.043-.159-.115-.113-.249.282-.829.556-1.659.839-2.486.039-.115.031-.169-.08-.237a1.6,1.6,0,0,1-.837-1.546,1.622,1.622,0,0,1,1.006-1.443.194.194,0,0,0,.13-.21q0-2.544,0-5.086c0-.181-.052-.171-.188-.115q-3.543,1.41-7.088,2.813a.41.41,0,0,1-.342.025q-4.739-1.9-9.48-3.778a.779.779,0,0,1-.087-.037c0-.074.072-.066.111-.08q4.724-1.883,9.445-3.763a.432.432,0,0,1,.359.025l9.34,3.72c.054.021.109.033.163.049.01.1-.082.084-.13.105-.272.117-.546.231-.824.336a.183.183,0,0,0-.144.2q.009,2.8,0,5.608a.176.176,0,0,0,.134.188,1.757,1.757,0,0,1,.641.491,2.457,2.457,0,0,1,.373.785Z" transform="translate(867.441 609.386)" fill="#fff"/>
      <path id="Path_16986" data-name="Path 16986" d="M54.363,42.259c0,.526.016,1.037,0,1.546a2.089,2.089,0,0,1-.9,1.575,5.45,5.45,0,0,1-2.481,1.028,9.064,9.064,0,0,1-4.6-.289,3.907,3.907,0,0,1-1.857-1.2,1.775,1.775,0,0,1-.435-1.066c-.019-.528,0-1.057,0-1.6l1.748.695q1.623.643,3.242,1.294a.37.37,0,0,0,.3,0q2.4-.961,4.808-1.917c.058-.023.115-.043.181-.068" transform="translate(869.79 612.948)" fill="#fff"/>
    </g>
  </g>
</svg>
