<svg xmlns="http://www.w3.org/2000/svg" xmlns:xlink="http://www.w3.org/1999/xlink" width="63" height="63" viewBox="0 0 63 63">
  <defs>
    <filter id="Path_16925" x="0" y="0" width="63" height="63" filterUnits="userSpaceOnUse">
      <feOffset dy="3" input="SourceAlpha"/>
      <feGaussianBlur stdDeviation="3" result="blur"/>
      <feFlood flood-opacity="0.161"/>
      <feComposite operator="in" in2="blur"/>
      <feComposite in="SourceGraphic"/>
    </filter>
  </defs>
  <g id="Université_" data-name="Université " transform="translate(-737 -637)">
    <g transform="matrix(1, 0, 0, 1, 737, 637)" filter="url(#Path_16925)">
      <g id="Path_16925-2" data-name="Path 16925" transform="translate(9 6)" fill="#864ba2">
        <path d="M 22.5 44 C 19.59708023071289 44 16.78152084350586 43.43167877197266 14.13154029846191 42.31082916259766 C 11.57145023345947 41.22800827026367 9.272049903869629 39.67763900756836 7.297200202941895 37.70280075073242 C 5.322360038757324 35.72795104980469 3.771990060806274 33.42855072021484 2.689169883728027 30.86845970153809 C 1.568320035934448 28.21847915649414 1 25.40291976928711 1 22.5 C 1 19.59708023071289 1.568320035934448 16.78152084350586 2.689169883728027 14.13154029846191 C 3.771990060806274 11.57145023345947 5.322360038757324 9.272049903869629 7.297200202941895 7.297200202941895 C 9.272049903869629 5.322360038757324 11.57145023345947 3.771990060806274 14.13154029846191 2.689169883728027 C 16.78152084350586 1.568320035934448 19.59708023071289 1 22.5 1 C 25.40291976928711 1 28.21847915649414 1.568320035934448 30.86845970153809 2.689169883728027 C 33.42855072021484 3.771990060806274 35.72795104980469 5.322360038757324 37.70280075073242 7.297200202941895 C 39.67763900756836 9.272049903869629 41.22800827026367 11.57145023345947 42.31082916259766 14.13154029846191 C 43.43167877197266 16.78152084350586 44 19.59708023071289 44 22.5 C 44 25.40291976928711 43.43167877197266 28.21847915649414 42.31082916259766 30.86845970153809 C 41.22800827026367 33.42855072021484 39.67763900756836 35.72795104980469 37.70280075073242 37.70280075073242 C 35.72795104980469 39.67763900756836 33.42855072021484 41.22800827026367 30.86845970153809 42.31082916259766 C 28.21847915649414 43.43167877197266 25.40291976928711 44 22.5 44 Z" stroke="none"/>
        <path d="M 22.5 2 C 19.73163986206055 2 17.04714012145996 2.541740417480469 14.52108955383301 3.61016845703125 C 12.0802001953125 4.642578125 9.887641906738281 6.120979309082031 8.004310607910156 8.004310607910156 C 6.120979309082031 9.887641906738281 4.642578125 12.0802001953125 3.61016845703125 14.52108955383301 C 2.541740417480469 17.04714012145996 2 19.73163986206055 2 22.5 C 2 25.26836013793945 2.541740417480469 27.95285987854004 3.61016845703125 30.47891044616699 C 4.642578125 32.9197998046875 6.120979309082031 35.11235809326172 8.004310607910156 36.99568939208984 C 9.887641906738281 38.87902069091797 12.0802001953125 40.357421875 14.52108955383301 41.38983154296875 C 17.04714012145996 42.45825958251953 19.73163986206055 43 22.5 43 C 25.26836013793945 43 27.95285987854004 42.45825958251953 30.47891044616699 41.38983154296875 C 32.9197998046875 40.357421875 35.11235809326172 38.87902069091797 36.99568939208984 36.99568939208984 C 38.87902069091797 35.11235809326172 40.357421875 32.9197998046875 41.38983154296875 30.47891044616699 C 42.45825958251953 27.95285987854004 43 25.26836013793945 43 22.5 C 43 19.73163986206055 42.45825958251953 17.04714012145996 41.38983154296875 14.52108955383301 C 40.357421875 12.0802001953125 38.87902069091797 9.887641906738281 36.99568939208984 8.004310607910156 C 35.11235809326172 6.120979309082031 32.9197998046875 4.642578125 30.47891044616699 3.61016845703125 C 27.95285987854004 2.541740417480469 25.26836013793945 2 22.5 2 M 22.5 0 C 34.92641067504883 0 45 10.07358932495117 45 22.5 C 45 34.92641067504883 34.92641067504883 45 22.5 45 C 10.07358932495117 45 0 34.92641067504883 0 22.5 C 0 10.07358932495117 10.07358932495117 0 22.5 0 Z" stroke="none" fill="#fff"/>
      </g>
    </g>
    <g id="Group_16820" data-name="Group 16820" transform="translate(-150.302 10.714)">
      <path id="Path_16985" data-name="Path 16985" d="M61.329,51c-.1.173-.124.375-.233.546a1.563,1.563,0,0,1-.583.581c-.15.08-.148.159-.1.3.28.814.55,1.632.828,2.446.047.138.045.208-.115.249a6.477,6.477,0,0,0-.684.225c-.169.068-.245.054-.3-.142-.153-.511-.334-1.012-.523-1.575-.054.161-.091.268-.128.377-.14.416-.282.833-.418,1.251-.037.117-.074.163-.21.111a6.937,6.937,0,0,0-.758-.247c-.163-.043-.159-.115-.113-.249.282-.829.556-1.659.839-2.486.039-.115.031-.169-.08-.237a1.6,1.6,0,0,1-.837-1.546,1.622,1.622,0,0,1,1.006-1.443.194.194,0,0,0,.13-.21q0-2.544,0-5.086c0-.181-.052-.171-.188-.115q-3.543,1.41-7.088,2.813a.41.41,0,0,1-.342.025q-4.739-1.9-9.48-3.778a.779.779,0,0,1-.087-.037c0-.074.072-.066.111-.08q4.724-1.883,9.445-3.763a.432.432,0,0,1,.359.025l9.34,3.72c.054.021.109.033.163.049.01.1-.082.084-.13.105-.272.117-.546.231-.824.336a.183.183,0,0,0-.144.2q.009,2.8,0,5.608a.176.176,0,0,0,.134.188,1.757,1.757,0,0,1,.641.491,2.457,2.457,0,0,1,.373.785Z" transform="translate(867.441 609.386)" fill="#fff"/>
      <path id="Path_16986" data-name="Path 16986" d="M54.363,42.259c0,.526.016,1.037,0,1.546a2.089,2.089,0,0,1-.9,1.575,5.45,5.45,0,0,1-2.481,1.028,9.064,9.064,0,0,1-4.6-.289,3.907,3.907,0,0,1-1.857-1.2,1.775,1.775,0,0,1-.435-1.066c-.019-.528,0-1.057,0-1.6l1.748.695q1.623.643,3.242,1.294a.37.37,0,0,0,.3,0q2.4-.961,4.808-1.917c.058-.023.115-.043.181-.068" transform="translate(869.79 612.948)" fill="#fff"/>
    </g>
  </g>
</svg>
