<svg xmlns="http://www.w3.org/2000/svg" width="11.601" height="17.015" viewBox="0 0 11.601 17.015">
  <g id="Walking" transform="translate(-862.399 -193)">
    <path id="Path_17026" data-name="Path 17026" d="M42.288,0h6.961a2.32,2.32,0,0,1,2.32,2.32V14.7a2.32,2.32,0,0,1-2.32,2.32H42.288a2.32,2.32,0,0,1-2.32-2.32V2.32A2.32,2.32,0,0,1,42.288,0" transform="translate(822.431 193)" fill="#4b7bec"/>
    <path id="Path_17027" data-name="Path 17027" d="M44.3,1.559A1.14,1.14,0,1,1,43.16,2.7a1.139,1.139,0,0,1,1.14-1.14" transform="translate(823.983 193.758)" fill="#fff"/>
    <path id="Path_17028" data-name="Path 17028" d="M48.024,6.032a7.915,7.915,0,0,1-2.357-2.14,1.326,1.326,0,0,0-1.876-.064c-.016.015-.031.03-.046.046a12.508,12.508,0,0,0-1.679,1.983.6.6,0,1,0,.966.7l.024-.036a10.064,10.064,0,0,1,.667-.88c-.01.62.021,1.736.036,2.238a.957.957,0,0,1-.11.479A18.974,18.974,0,0,0,42.243,12a.626.626,0,1,0,1.2.352,17.881,17.881,0,0,1,1.28-3.339h.085q.533,1.585,1.064,3.17a.63.63,0,0,0,1.195-.4q-.582-1.734-1.161-3.467a3.187,3.187,0,0,1-.085-.41,20.873,20.873,0,0,1-.077-2.133,9.438,9.438,0,0,0,1.818,1.361c.663.385,1.121-.725.462-1.107" transform="translate(823.396 194.687)" fill="#fff"/>
  </g>
</svg>
